<svg width="828" height="455" viewBox="0 0 828 455" fill="none" xmlns="http://www.w3.org/2000/svg">
<path d="M450.161 0.619995H140.951C63.616 0.619995 0.913574 63.3115 0.913574 140.658V453.69C0.913574 454.41 1.50326 455 2.22398 455H450.161C527.497 455 590.199 392.308 590.199 314.962V140.658C590.199 63.3115 527.497 0.619995 450.161 0.619995Z" fill="url(#paint0_linear_6866_1102)"/>
<path d="M608.337 202.749C607.419 187.93 627.49 176.148 627.49 176.148L827.686 38.8071L827.315 429.982L626.912 292.937C626.912 292.937 608.348 285.205 608.348 264.851C608.337 246.811 608.337 215.143 608.337 202.749Z" fill="url(#paint1_linear_6866_1102)"/>
<path d="M355.791 215.885L263.495 138.714C243.686 122.159 213.558 136.235 213.558 162.05V316.393C213.558 342.208 243.686 356.294 263.495 339.729L355.791 262.557C370.336 250.403 370.336 228.05 355.791 215.885Z" fill="white"/>
<defs>
<linearGradient id="paint0_linear_6866_1102" x1="28.305" y1="235.992" x2="254.651" y2="-120.922" gradientUnits="userSpaceOnUse">
<stop offset="0.00413931" stop-color="#640CC6"/>
<stop offset="1" stop-color="#DB00FF"/>
</linearGradient>
<linearGradient id="paint1_linear_6866_1102" x1="618.503" y1="241.439" x2="819.044" y2="104.694" gradientUnits="userSpaceOnUse">
<stop offset="0.00413931" stop-color="#640CC6"/>
<stop offset="1" stop-color="#DB00FF"/>
</linearGradient>
</defs>
</svg>
