<svg width="112" height="123" viewBox="0 0 112 123" fill="none" xmlns="http://www.w3.org/2000/svg">
<g clip-path="url(#clip0_1260_603)">
<path d="M55.869 0.570312L0.5 30.9893V91.4343L55.868 122.434L111.368 91.8923V31.2703L55.869 0.570312Z" fill="white" stroke="#69787C"/>
<path d="M55.6767 5.17969L4.30469 33.3987V89.4817L55.6767 118.246L107.167 89.9087V33.6597L55.6767 5.17969Z" fill="#56676A"/>
<path d="M10.7107 42.4141H4.30469V78.8471H10.7107V42.4141Z" fill="#16303A"/>
<path d="M107.195 42.4141H100.789V78.8471H107.195V42.4141Z" fill="#16303A"/>
<path d="M55.6609 10.9844L9.71094 36.2214V86.3804L55.6609 112.106L101.713 86.7624V36.4554L55.6609 10.9844Z" fill="white" stroke="#16303A"/>
<path d="M102.392 45.2188H9.50781V76.8477H102.392V45.2188Z" fill="#16303A"/>
<path d="M45.1076 52.7266H42.6016V68.3026H45.1076V52.7266Z" fill="white"/>
<path d="M53.8772 63.3484C53.8965 63.6891 53.8436 64.03 53.722 64.3489C53.6003 64.6677 53.4127 64.9573 53.1714 65.1986C52.9301 65.4399 52.6405 65.6275 52.3217 65.7491C52.0028 65.8707 51.6619 65.9237 51.3212 65.9044C49.8502 65.9044 49.5212 64.4884 49.5212 63.6174V57.7344H47.0172V63.6674C46.9857 64.9611 47.4314 66.2211 48.2692 67.2074C49.0877 67.9497 50.1651 68.3408 51.2692 68.2964C51.7318 68.3276 52.1959 68.2665 52.6347 68.1169C53.0735 67.9672 53.4782 67.7318 53.8252 67.4244V68.2964H56.3312V57.7394H53.8172V63.3484H53.8772Z" fill="white"/>
<path d="M61.2848 53.9766H58.7788V57.7346H56.9219V60.2346H58.7738V68.2946H61.2799V60.2346H63.1318V57.7346H61.2799L61.2848 53.9766Z" fill="white"/>
<path d="M70.977 65.1447C70.4232 65.6402 69.7049 65.9118 68.9619 65.9067C68.5599 65.9211 68.1592 65.8517 67.7854 65.7029C67.4117 65.5541 67.0729 65.3292 66.7908 65.0425C66.5086 64.7557 66.2892 64.4134 66.1465 64.0373C66.0038 63.6611 65.941 63.2594 65.9619 62.8577C65.9419 62.4584 66.0057 62.0594 66.1493 61.6863C66.293 61.3132 66.5132 60.9744 66.7959 60.6917C67.0786 60.4091 67.4175 60.1888 67.7906 60.0451C68.1636 59.9014 68.5627 59.8376 68.9619 59.8577C69.3318 59.8425 69.7009 59.9021 70.0471 60.0331C70.3934 60.164 70.7097 60.3635 70.977 60.6197L71.3568 60.9467L72.9909 59.3127L72.6099 58.9307C71.6001 58.0393 70.3056 57.5372 68.9589 57.5147C68.2457 57.4777 67.5327 57.5901 66.8655 57.8445C66.1983 58.0989 65.5915 58.4898 65.084 58.9921C64.5765 59.4944 64.1793 60.0972 63.9181 60.7618C63.6569 61.4264 63.5373 62.1382 63.5669 62.8517C63.5545 63.5631 63.6853 64.2698 63.9518 64.9295C64.2183 65.5893 64.615 66.1886 65.1181 66.6918C65.6212 67.195 66.2204 67.5917 66.8802 67.8583C67.5399 68.1249 68.2465 68.256 68.9579 68.2437C70.3433 68.2567 71.6835 67.7516 72.7158 66.8277L73.0969 66.4457L71.3539 64.7037L70.977 65.1447Z" fill="white"/>
<path d="M81.9768 58.6596C81.6229 58.2997 81.1982 58.0171 80.7295 57.8296C80.2608 57.6422 79.7584 57.554 79.2539 57.5706C78.3536 57.5248 77.4721 57.8385 76.803 58.4426V52.7266H74.2969V68.3016H76.803V62.4206C76.7566 62.0974 76.7814 61.7681 76.8757 61.4556C76.9701 61.1431 77.1317 60.855 77.3491 60.6114C77.5665 60.3679 77.8344 60.1749 78.1343 60.0459C78.4341 59.9169 78.7587 59.855 79.085 59.8646C80.555 59.8646 80.5549 61.2806 80.5549 62.1516V68.3066H83.0549V62.0986C83.1183 61.4826 83.0543 60.8601 82.8669 60.2699C82.6796 59.6796 82.3729 59.1342 81.9658 58.6676" fill="white"/>
<path d="M68.8547 61.1172C69.2107 61.1172 69.5587 61.2227 69.8547 61.4205C70.1507 61.6183 70.3816 61.8995 70.5178 62.2284C70.6541 62.5573 70.6896 62.9192 70.6201 63.2683C70.5507 63.6175 70.3792 63.9382 70.1274 64.19C69.8757 64.4417 69.555 64.6132 69.2058 64.6826C68.8566 64.7521 68.4949 64.7164 68.166 64.5802C67.8371 64.4439 67.5559 64.2132 67.3582 63.9172C67.1604 63.6212 67.0547 63.2732 67.0547 62.9172C67.0547 62.4398 67.2445 61.982 67.582 61.6444C67.9196 61.3068 68.3773 61.1172 68.8547 61.1172Z" fill="#FF3D2E"/>
<path d="M39.1739 64.3831C38.21 65.3183 36.922 65.845 35.5789 65.8531C34.9143 65.8545 34.2564 65.7191 33.6464 65.4552C33.0363 65.1914 32.4871 64.8049 32.0329 64.3196C31.5787 63.8344 31.2293 63.2608 31.0063 62.6347C30.7833 62.0085 30.6916 61.3432 30.7369 60.6801C30.7369 57.6851 32.7519 55.5061 35.5289 55.5061C36.8679 55.5345 38.1487 56.0582 39.1239 56.9761L39.5059 57.3581L41.1369 55.7241L40.7529 55.3431C40.0694 54.6515 39.2553 54.1027 38.3577 53.7286C37.4602 53.3545 36.4973 53.1626 35.5249 53.1641C34.55 53.1699 33.5863 53.3726 32.6916 53.7601C31.797 54.1475 30.9898 54.7117 30.3185 55.4187C29.6472 56.1258 29.1257 56.9611 28.7852 57.8747C28.4447 58.7882 28.2922 59.7611 28.3369 60.7351C28.2887 61.7071 28.4391 62.6788 28.779 63.5908C29.1189 64.5028 29.6412 65.3359 30.3139 66.0392C30.9866 66.7426 31.7957 67.3014 32.6917 67.6815C33.5876 68.0616 34.5517 68.2551 35.5249 68.2501C36.4994 68.2667 37.4667 68.0815 38.366 67.7062C39.2654 67.3308 40.0774 66.7734 40.7509 66.0691L41.1329 65.6871L39.4989 63.9441L39.1739 64.3831Z" fill="white"/>
<path d="M49.7898 25.3004V24.8317H53.0625V25.3004H51.6903V29.1953H51.1619V25.3004H49.7898ZM57.3782 27.0135C57.3782 27.4737 57.2951 27.8714 57.1289 28.2067C56.9627 28.5419 56.7347 28.8004 56.445 28.9822C56.1552 29.1641 55.8242 29.255 55.4521 29.255C55.0799 29.255 54.7489 29.1641 54.4592 28.9822C54.1694 28.8004 53.9414 28.5419 53.7752 28.2067C53.609 27.8714 53.5259 27.4737 53.5259 27.0135C53.5259 26.5533 53.609 26.1555 53.7752 25.8203C53.9414 25.4851 54.1694 25.2266 54.4592 25.0447C54.7489 24.8629 55.0799 24.772 55.4521 24.772C55.8242 24.772 56.1552 24.8629 56.445 25.0447C56.7347 25.2266 56.9627 25.4851 57.1289 25.8203C57.2951 26.1555 57.3782 26.5533 57.3782 27.0135ZM56.8668 27.0135C56.8668 26.6357 56.8036 26.3168 56.6772 26.0568C56.5522 25.7969 56.3825 25.6001 56.168 25.4666C55.9549 25.3331 55.7163 25.2663 55.4521 25.2663C55.1879 25.2663 54.9485 25.3331 54.734 25.4666C54.521 25.6001 54.3512 25.7969 54.2248 26.0568C54.0998 26.3168 54.0373 26.6357 54.0373 27.0135C54.0373 27.3913 54.0998 27.7102 54.2248 27.9702C54.3512 28.2301 54.521 28.4268 54.734 28.5604C54.9485 28.6939 55.1879 28.7607 55.4521 28.7607C55.7163 28.7607 55.9549 28.6939 56.168 28.5604C56.3825 28.4268 56.5522 28.2301 56.6772 27.9702C56.8036 27.7102 56.8668 27.3913 56.8668 27.0135ZM58.2667 29.1953V24.8317H59.7411C60.0835 24.8317 60.3633 24.8935 60.5806 25.017C60.7994 25.1392 60.9613 25.3047 61.0664 25.5135C61.1715 25.7223 61.2241 25.9553 61.2241 26.2124C61.2241 26.4695 61.1715 26.7031 61.0664 26.9134C60.9627 27.1236 60.8022 27.2912 60.5849 27.4162C60.3675 27.5398 60.0891 27.6016 59.7496 27.6016H58.6928V27.1328H59.7326C59.967 27.1328 60.1552 27.0923 60.2972 27.0114C60.4393 26.9304 60.5423 26.821 60.6062 26.6832C60.6715 26.544 60.7042 26.3871 60.7042 26.2124C60.7042 26.0376 60.6715 25.8814 60.6062 25.7436C60.5423 25.6058 60.4386 25.4979 60.2951 25.4197C60.1516 25.3402 59.9613 25.3004 59.7241 25.3004H58.7951V29.1953H58.2667Z" fill="#16303A"/>
<path d="M38.0284 32.1364H38.6591L40.142 35.7585H40.1932L41.6761 32.1364H42.3068V36.5H41.8125V33.1847H41.7699L40.4062 36.5H39.929L38.5653 33.1847H38.5227V36.5H38.0284V32.1364ZM47.0481 34.3182C47.0481 34.7784 46.965 35.1761 46.7988 35.5114C46.6326 35.8466 46.4047 36.1051 46.1149 36.2869C45.8251 36.4688 45.4941 36.5597 45.122 36.5597C44.7498 36.5597 44.4189 36.4688 44.1291 36.2869C43.8393 36.1051 43.6113 35.8466 43.4451 35.5114C43.2789 35.1761 43.1958 34.7784 43.1958 34.3182C43.1958 33.858 43.2789 33.4602 43.4451 33.125C43.6113 32.7898 43.8393 32.5312 44.1291 32.3494C44.4189 32.1676 44.7498 32.0767 45.122 32.0767C45.4941 32.0767 45.8251 32.1676 46.1149 32.3494C46.4047 32.5312 46.6326 32.7898 46.7988 33.125C46.965 33.4602 47.0481 33.858 47.0481 34.3182ZM46.5368 34.3182C46.5368 33.9403 46.4735 33.6214 46.3471 33.3615C46.2221 33.1016 46.0524 32.9048 45.8379 32.7713C45.6248 32.6378 45.3862 32.571 45.122 32.571C44.8578 32.571 44.6184 32.6378 44.4039 32.7713C44.1909 32.9048 44.0211 33.1016 43.8947 33.3615C43.7697 33.6214 43.7072 33.9403 43.7072 34.3182C43.7072 34.696 43.7697 35.0149 43.8947 35.2749C44.0211 35.5348 44.1909 35.7315 44.4039 35.8651C44.6184 35.9986 44.8578 36.0653 45.122 36.0653C45.3862 36.0653 45.6248 35.9986 45.8379 35.8651C46.0524 35.7315 46.2221 35.5348 46.3471 35.2749C46.4735 35.0149 46.5368 34.696 46.5368 34.3182ZM47.9366 36.5V32.1364H49.4622C49.7662 32.1364 50.0169 32.1889 50.2143 32.294C50.4118 32.3977 50.5588 32.5376 50.6554 32.7138C50.752 32.8885 50.8002 33.0824 50.8002 33.2955C50.8002 33.483 50.7669 33.6378 50.7001 33.7599C50.6348 33.8821 50.5481 33.9787 50.4402 34.0497C50.3336 34.1207 50.2179 34.1733 50.0929 34.2074V34.25C50.2264 34.2585 50.3606 34.3054 50.4956 34.3906C50.6305 34.4759 50.7434 34.598 50.8343 34.7571C50.9252 34.9162 50.9707 35.1108 50.9707 35.3409C50.9707 35.5597 50.921 35.7564 50.8216 35.9311C50.7221 36.1058 50.5652 36.2443 50.3507 36.3466C50.1362 36.4489 49.8571 36.5 49.5133 36.5H47.9366ZM48.465 36.0312H49.5133C49.8585 36.0312 50.1035 35.9645 50.2484 35.831C50.3947 35.696 50.4679 35.5327 50.4679 35.3409C50.4679 35.1932 50.4302 35.0568 50.3549 34.9318C50.2797 34.8054 50.1724 34.7045 50.0332 34.6293C49.894 34.5526 49.7292 34.5142 49.5389 34.5142H48.465V36.0312ZM48.465 34.054H49.4451C49.6042 34.054 49.7477 34.0227 49.8755 33.9602C50.0048 33.8977 50.1071 33.8097 50.1824 33.696C50.2591 33.5824 50.2974 33.4489 50.2974 33.2955C50.2974 33.1037 50.2306 32.9411 50.0971 32.8075C49.9636 32.6726 49.752 32.6051 49.4622 32.6051H48.465V34.054ZM52.3674 32.1364V36.5H51.839V32.1364H52.3674ZM53.4268 36.5V32.1364H53.9553V36.0312H55.9837V36.5H53.4268ZM56.8018 36.5V32.1364H59.4354V32.6051H57.3303V34.0795H59.299V34.5483H57.3303V36.0312H59.4695V36.5H56.8018ZM62.2543 36.5H61.7003L63.3026 32.1364H63.848L65.4503 36.5H64.8963L63.5923 32.8267H63.5582L62.2543 36.5ZM62.4588 34.7955H64.6918V35.2642H62.4588V34.7955ZM66.13 36.5V32.1364H67.6044C67.9467 32.1364 68.2266 32.1982 68.4439 32.3217C68.6626 32.4439 68.8246 32.6094 68.9297 32.8182C69.0348 33.027 69.0874 33.2599 69.0874 33.517C69.0874 33.7741 69.0348 34.0078 68.9297 34.218C68.826 34.4283 68.6655 34.5959 68.4482 34.7209C68.2308 34.8445 67.9524 34.9062 67.6129 34.9062H66.5561V34.4375H67.5959C67.8303 34.4375 68.0185 34.397 68.1605 34.3161C68.3026 34.2351 68.4055 34.1257 68.4695 33.9879C68.5348 33.8487 68.5675 33.6918 68.5675 33.517C68.5675 33.3423 68.5348 33.1861 68.4695 33.0483C68.4055 32.9105 68.3018 32.8026 68.1584 32.7244C68.0149 32.6449 67.8246 32.6051 67.5874 32.6051H66.6584V36.5H66.13ZM69.9386 36.5V32.1364H71.413C71.7553 32.1364 72.0352 32.1982 72.2525 32.3217C72.4712 32.4439 72.6332 32.6094 72.7383 32.8182C72.8434 33.027 72.896 33.2599 72.896 33.517C72.896 33.7741 72.8434 34.0078 72.7383 34.218C72.6346 34.4283 72.4741 34.5959 72.2567 34.7209C72.0394 34.8445 71.761 34.9062 71.4215 34.9062H70.3647V34.4375H71.4045C71.6388 34.4375 71.8271 34.397 71.9691 34.3161C72.1112 34.2351 72.2141 34.1257 72.2781 33.9879C72.3434 33.8487 72.3761 33.6918 72.3761 33.517C72.3761 33.3423 72.3434 33.1861 72.2781 33.0483C72.2141 32.9105 72.1104 32.8026 71.967 32.7244C71.8235 32.6449 71.6332 32.6051 71.396 32.6051H70.467V36.5H69.9386Z" fill="#16303A"/>
<path d="M39.0547 88.6484H37.7081V84.2848H39.1143C39.5376 84.2848 39.8999 84.3722 40.201 84.5469C40.5021 84.7202 40.733 84.9695 40.8935 85.2947C41.054 85.6186 41.1342 86.0064 41.1342 86.4581C41.1342 86.9126 41.0533 87.304 40.8913 87.6321C40.7294 87.9588 40.4936 88.2102 40.1839 88.3864C39.8743 88.5611 39.4979 88.6484 39.0547 88.6484ZM38.2365 88.1797H39.0206C39.3814 88.1797 39.6804 88.1101 39.9176 87.9709C40.1548 87.8317 40.3317 87.6335 40.4482 87.3764C40.5646 87.1193 40.6229 86.8132 40.6229 86.4581C40.6229 86.1058 40.5653 85.8026 40.4503 85.5483C40.3352 85.2926 40.1634 85.0966 39.9347 84.9602C39.706 84.8224 39.4212 84.7536 39.0803 84.7536H38.2365V88.1797ZM42.0206 88.6484V84.2848H44.6541V84.7536H42.549V86.228H44.5178V86.6967H42.549V88.1797H44.6882V88.6484H42.0206ZM45.7855 84.2848L47.081 87.9581H47.1321L48.4276 84.2848H48.9815L47.3793 88.6484H46.8338L45.2315 84.2848H45.7855ZM49.6612 88.6484V84.2848H52.2947V84.7536H50.1896V86.228H52.1584V86.6967H50.1896V88.1797H52.3288V88.6484H49.6612ZM53.2472 88.6484V84.2848H53.7756V88.1797H55.804V88.6484H53.2472ZM60.1341 86.4666C60.1341 86.9268 60.051 87.3246 59.8848 87.6598C59.7186 87.995 59.4906 88.2536 59.2008 88.4354C58.911 88.6172 58.5801 88.7081 58.2079 88.7081C57.8358 88.7081 57.5048 88.6172 57.215 88.4354C56.9252 88.2536 56.6973 87.995 56.5311 87.6598C56.3649 87.3246 56.2818 86.9268 56.2818 86.4666C56.2818 86.0064 56.3649 85.6087 56.5311 85.2734C56.6973 84.9382 56.9252 84.6797 57.215 84.4979C57.5048 84.3161 57.8358 84.2251 58.2079 84.2251C58.5801 84.2251 58.911 84.3161 59.2008 84.4979C59.4906 84.6797 59.7186 84.9382 59.8848 85.2734C60.051 85.6087 60.1341 86.0064 60.1341 86.4666ZM59.6227 86.4666C59.6227 86.0888 59.5595 85.7699 59.4331 85.5099C59.3081 85.25 59.1383 85.0533 58.9238 84.9197C58.7108 84.7862 58.4721 84.7195 58.2079 84.7195C57.9437 84.7195 57.7044 84.7862 57.4899 84.9197C57.2768 85.0533 57.1071 85.25 56.9806 85.5099C56.8556 85.7699 56.7931 86.0888 56.7931 86.4666C56.7931 86.8445 56.8556 87.1634 56.9806 87.4233C57.1071 87.6832 57.2768 87.88 57.4899 88.0135C57.7044 88.147 57.9437 88.2138 58.2079 88.2138C58.4721 88.2138 58.7108 88.147 58.9238 88.0135C59.1383 87.88 59.3081 87.6832 59.4331 87.4233C59.5595 87.1634 59.6227 86.8445 59.6227 86.4666ZM61.0225 88.6484V84.2848H62.497C62.8393 84.2848 63.1191 84.3466 63.3365 84.4702C63.5552 84.5923 63.7172 84.7578 63.8223 84.9666C63.9274 85.1754 63.9799 85.4084 63.9799 85.6655C63.9799 85.9226 63.9274 86.1562 63.8223 86.3665C63.7186 86.5767 63.5581 86.7443 63.3407 86.8693C63.1234 86.9929 62.845 87.0547 62.5055 87.0547H61.4487V86.5859H62.4885C62.7228 86.5859 62.911 86.5455 63.0531 86.4645C63.1951 86.3835 63.2981 86.2741 63.362 86.1364C63.4274 85.9972 63.46 85.8402 63.46 85.6655C63.46 85.4908 63.4274 85.3345 63.362 85.1967C63.2981 85.0589 63.1944 84.951 63.051 84.8729C62.9075 84.7933 62.7172 84.7536 62.4799 84.7536H61.551V88.6484H61.0225ZM64.8311 88.6484V84.2848H67.4647V84.7536H65.3596V86.228H67.3283V86.6967H65.3596V88.1797H67.4988V88.6484H64.8311ZM68.4171 88.6484V84.2848H69.8915C70.2324 84.2848 70.5123 84.343 70.731 84.4595C70.9498 84.5746 71.1117 84.733 71.2168 84.9347C71.3219 85.1364 71.3745 85.3658 71.3745 85.6229C71.3745 85.88 71.3219 86.108 71.2168 86.3068C71.1117 86.5057 70.9505 86.6619 70.7331 86.7756C70.5158 86.8878 70.2381 86.9439 69.9 86.9439H68.7069V86.4666H69.883C70.1159 86.4666 70.3034 86.4325 70.4455 86.3643C70.589 86.2962 70.6926 86.1996 70.7566 86.0746C70.8219 85.9482 70.8546 85.7976 70.8546 85.6229C70.8546 85.4482 70.8219 85.2955 70.7566 85.1648C70.6912 85.0341 70.5868 84.9332 70.4434 84.8622C70.2999 84.7898 70.1103 84.7536 69.8745 84.7536H68.9455V88.6484H68.4171ZM70.4711 86.6882L71.5449 88.6484H70.9313L69.8745 86.6882H70.4711ZM74.6413 85.3757C74.6158 85.1598 74.5121 84.9922 74.3303 84.8729C74.1484 84.7536 73.9254 84.6939 73.6612 84.6939C73.468 84.6939 73.299 84.7251 73.1541 84.7876C73.0107 84.8501 72.8984 84.9361 72.8175 85.0455C72.7379 85.1548 72.6982 85.2791 72.6982 85.4183C72.6982 85.5348 72.7259 85.6349 72.7812 85.7188C72.8381 85.8011 72.9105 85.87 72.9986 85.9254C73.0866 85.9794 73.179 86.0241 73.2756 86.0597C73.3722 86.0937 73.4609 86.1214 73.5419 86.1428L73.9851 86.2621C74.0987 86.2919 74.2251 86.3331 74.3643 86.3857C74.505 86.4382 74.6392 86.5099 74.767 86.6009C74.8963 86.6903 75.0028 86.8054 75.0866 86.946C75.1705 87.0866 75.2124 87.2592 75.2124 87.4638C75.2124 87.6996 75.1506 87.9126 75.027 88.103C74.9048 88.2933 74.7259 88.4446 74.4901 88.5568C74.2557 88.669 73.9709 88.7251 73.6357 88.7251C73.3232 88.7251 73.0526 88.6747 72.8239 88.5739C72.5966 88.473 72.4176 88.3324 72.2869 88.152C72.1577 87.9716 72.0845 87.7621 72.0675 87.5234H72.6129C72.6271 87.6882 72.6825 87.8246 72.7791 87.9325C72.8771 88.0391 73.0007 88.1186 73.1499 88.1712C73.3004 88.2223 73.4624 88.2479 73.6357 88.2479C73.8374 88.2479 74.0185 88.2152 74.179 88.1499C74.3395 88.0831 74.4666 87.9908 74.5604 87.8729C74.6541 87.7536 74.701 87.6143 74.701 87.4553C74.701 87.3104 74.6605 87.1925 74.5795 87.1016C74.4986 87.0107 74.392 86.9368 74.2599 86.88C74.1278 86.8232 73.9851 86.7734 73.8317 86.7308L73.2947 86.5774C72.9538 86.4794 72.6839 86.3395 72.4851 86.1577C72.2862 85.9759 72.1868 85.7379 72.1868 85.4439C72.1868 85.1996 72.2528 84.9865 72.3849 84.8047C72.5185 84.6214 72.6974 84.4794 72.9219 84.3786C73.1477 84.2763 73.3999 84.2251 73.6783 84.2251C73.9595 84.2251 74.2095 84.2756 74.4283 84.3764C74.647 84.4759 74.8203 84.6122 74.9482 84.7855C75.0774 84.9588 75.1456 85.1555 75.1527 85.3757H74.6413Z" fill="#16303A"/>
<path d="M49.6314 95.9531V95.5696L51.0717 93.9929C51.2408 93.8082 51.38 93.6477 51.4893 93.5114C51.5987 93.3736 51.6797 93.2443 51.7322 93.1236C51.7862 93.0014 51.8132 92.8736 51.8132 92.7401C51.8132 92.5866 51.7763 92.4538 51.7024 92.3416C51.63 92.2294 51.5305 92.1428 51.4041 92.0817C51.2777 92.0206 51.1357 91.9901 50.978 91.9901C50.8104 91.9901 50.6641 92.0249 50.5391 92.0945C50.4155 92.1626 50.3196 92.2585 50.2514 92.3821C50.1847 92.5057 50.1513 92.6506 50.1513 92.8168H49.6484C49.6484 92.5611 49.7074 92.3366 49.8253 92.1435C49.9432 91.9503 50.1037 91.7997 50.3068 91.6918C50.5114 91.5838 50.7408 91.5298 50.995 91.5298C51.2507 91.5298 51.4773 91.5838 51.6747 91.6918C51.8722 91.7997 52.027 91.9453 52.1392 92.1286C52.2514 92.3118 52.3075 92.5156 52.3075 92.7401C52.3075 92.9006 52.2784 93.0575 52.2202 93.2109C52.1634 93.3629 52.0639 93.5327 51.9219 93.7202C51.7812 93.9062 51.5859 94.1335 51.3359 94.402L50.3558 95.4503V95.4844H52.3842V95.9531H49.6314ZM54.6875 96.0128C54.3665 96.0128 54.093 95.9254 53.8672 95.7507C53.6413 95.5746 53.4688 95.3196 53.3494 94.9858C53.2301 94.6506 53.1705 94.2457 53.1705 93.7713C53.1705 93.2997 53.2301 92.897 53.3494 92.5632C53.4702 92.228 53.6435 91.9723 53.8693 91.7962C54.0966 91.6186 54.3693 91.5298 54.6875 91.5298C55.0057 91.5298 55.2777 91.6186 55.5036 91.7962C55.7308 91.9723 55.9041 92.228 56.0234 92.5632C56.1442 92.897 56.2045 93.2997 56.2045 93.7713C56.2045 94.2457 56.1449 94.6506 56.0256 94.9858C55.9062 95.3196 55.7337 95.5746 55.5078 95.7507C55.282 95.9254 55.0085 96.0128 54.6875 96.0128ZM54.6875 95.544C55.0057 95.544 55.2528 95.3906 55.429 95.0838C55.6051 94.777 55.6932 94.3395 55.6932 93.7713C55.6932 93.3935 55.6527 93.0717 55.5717 92.8061C55.4922 92.5405 55.3771 92.3381 55.2266 92.1989C55.0774 92.0597 54.8977 91.9901 54.6875 91.9901C54.3722 91.9901 54.1257 92.1456 53.9482 92.4567C53.7706 92.7663 53.6818 93.2045 53.6818 93.7713C53.6818 94.1491 53.7216 94.4702 53.8011 94.7344C53.8807 94.9986 53.995 95.1996 54.1442 95.3374C54.2947 95.4751 54.4759 95.544 54.6875 95.544ZM57.0142 95.9531V95.5696L58.4545 93.9929C58.6236 93.8082 58.7628 93.6477 58.8722 93.5114C58.9815 93.3736 59.0625 93.2443 59.1151 93.1236C59.169 93.0014 59.196 92.8736 59.196 92.7401C59.196 92.5866 59.1591 92.4538 59.0852 92.3416C59.0128 92.2294 58.9134 92.1428 58.7869 92.0817C58.6605 92.0206 58.5185 91.9901 58.3608 91.9901C58.1932 91.9901 58.0469 92.0249 57.9219 92.0945C57.7983 92.1626 57.7024 92.2585 57.6342 92.3821C57.5675 92.5057 57.5341 92.6506 57.5341 92.8168H57.0312C57.0312 92.5611 57.0902 92.3366 57.2081 92.1435C57.326 91.9503 57.4865 91.7997 57.6896 91.6918C57.8942 91.5838 58.1236 91.5298 58.3778 91.5298C58.6335 91.5298 58.8601 91.5838 59.0575 91.6918C59.255 91.7997 59.4098 91.9453 59.522 92.1286C59.6342 92.3118 59.6903 92.5156 59.6903 92.7401C59.6903 92.9006 59.6612 93.0575 59.603 93.2109C59.5462 93.3629 59.4467 93.5327 59.3047 93.7202C59.1641 93.9062 58.9688 94.1335 58.7188 94.402L57.7386 95.4503V95.4844H59.767V95.9531H57.0142ZM62.1214 96.0128C61.8402 96.0128 61.5895 95.9645 61.3693 95.8679C61.1506 95.7713 60.9766 95.6371 60.8473 95.4652C60.7195 95.2919 60.6499 95.0909 60.6385 94.8622H61.1754C61.1868 95.0028 61.2351 95.1243 61.3203 95.2266C61.4055 95.3274 61.517 95.4055 61.6548 95.4609C61.7926 95.5163 61.9453 95.544 62.1129 95.544C62.3004 95.544 62.4666 95.5114 62.6115 95.446C62.7564 95.3807 62.87 95.2898 62.9524 95.1733C63.0348 95.0568 63.076 94.9219 63.076 94.7685C63.076 94.608 63.0362 94.4666 62.9567 94.3445C62.8771 94.2209 62.7607 94.1243 62.6072 94.0547C62.4538 93.9851 62.2663 93.9503 62.0447 93.9503H61.6953V93.4815H62.0447C62.218 93.4815 62.37 93.4503 62.5007 93.3878C62.6328 93.3253 62.7358 93.2372 62.8097 93.1236C62.8849 93.0099 62.9226 92.8764 62.9226 92.723C62.9226 92.5753 62.8899 92.4467 62.8246 92.3374C62.7592 92.228 62.6669 92.1428 62.5476 92.0817C62.4297 92.0206 62.2905 91.9901 62.13 91.9901C61.9794 91.9901 61.8374 92.0178 61.7038 92.0732C61.5717 92.1271 61.4638 92.206 61.38 92.3097C61.2962 92.4119 61.2507 92.5355 61.2436 92.6804H60.7322C60.7408 92.4517 60.8097 92.2514 60.9389 92.0795C61.0682 91.9062 61.2372 91.7713 61.446 91.6747C61.6563 91.5781 61.8871 91.5298 62.1385 91.5298C62.4084 91.5298 62.6399 91.5845 62.8331 91.6939C63.0263 91.8018 63.1747 91.9446 63.2784 92.1222C63.3821 92.2997 63.4339 92.4915 63.4339 92.6974C63.4339 92.9432 63.3693 93.1527 63.2401 93.326C63.1122 93.4993 62.9382 93.6193 62.718 93.6861V93.7202C62.9936 93.7656 63.2088 93.8828 63.3636 94.0717C63.5185 94.2592 63.5959 94.4915 63.5959 94.7685C63.5959 95.0057 63.5313 95.2188 63.402 95.4077C63.2741 95.5952 63.0994 95.7429 62.8778 95.8509C62.6563 95.9588 62.4041 96.0128 62.1214 96.0128Z" fill="#16303A"/>
<path d="M22.1172 42.6172H91.7802" stroke="#16303A" stroke-width="0.5"/>
<path d="M22.1172 78.8438H91.7802" stroke="#16303A" stroke-width="0.5"/>
</g>
<defs>
<clipPath id="clip0_1260_603">
<rect width="111.865" height="123.008" fill="white"/>
</clipPath>
</defs>
</svg>
