<svg width="200" height="200" viewBox="0 0 200 200" fill="none" xmlns="http://www.w3.org/2000/svg">
<g clip-path="url(#clip0_1262_490)">
<mask id="mask0_1262_490" style="mask-type:luminance" maskUnits="userSpaceOnUse" x="0" y="0" width="200" height="200">
<path d="M200 0H0V200H200V0Z" fill="white"/>
</mask>
<g mask="url(#mask0_1262_490)">
<path d="M167 168H11V12H167V168ZM15 16V165H164V16H15Z" fill="#941A41"/>
<path d="M187 83H36V125H187V83Z" fill="#941A41"/>
<path d="M13 68L36 83.884V125L13 110V68Z" fill="#710E2D"/>
<path d="M189 187H33V31H189V187ZM37 35V184H186V35H37Z" fill="#941A41"/>
<path d="M92.3427 56.9991C92.2221 56.9999 92.1034 56.9689 91.9987 56.909C91.9491 56.8839 91.9077 56.8452 91.8793 56.7974C91.851 56.7495 91.8369 56.6946 91.8387 56.6391V49.1631H89.8987C89.8478 49.1632 89.7977 49.15 89.7535 49.1247C89.7092 49.0994 89.6724 49.063 89.6467 49.0191C89.5802 48.9197 89.5453 48.8026 89.5467 48.6831C89.5461 48.5734 89.5751 48.4656 89.6307 48.371C89.6568 48.3247 89.6954 48.2867 89.7421 48.2612C89.7887 48.2358 89.8416 48.2239 89.8947 48.227H94.7947C94.8478 48.2239 94.9006 48.2358 94.9473 48.2612C94.994 48.2867 95.0326 48.3247 95.0587 48.371C95.1143 48.4656 95.1433 48.5734 95.1427 48.6831C95.1439 48.7985 95.1149 48.9122 95.0587 49.0131C95.0337 49.0607 94.9955 49.1002 94.9487 49.1268C94.9019 49.1534 94.8484 49.166 94.7947 49.1631H92.8467V56.6391C92.8489 56.6942 92.8354 56.7488 92.8078 56.7966C92.7801 56.8444 92.7396 56.8834 92.6907 56.909C92.5848 56.9695 92.4646 57.0006 92.3427 56.9991ZM99.6147 57.071C99.1628 57.0787 98.7143 56.9907 98.2987 56.8131C97.9111 56.6414 97.5877 56.3516 97.3747 55.9851C97.1253 55.5151 97.0071 54.9865 97.0327 54.4551V50.8431C97.0071 50.3116 97.1253 49.783 97.3747 49.3131C97.5877 48.9465 97.9111 48.6567 98.2987 48.4851C98.7143 48.3074 99.1628 48.2194 99.6147 48.227C100.068 48.2201 100.517 48.308 100.935 48.4851C101.325 48.6551 101.651 48.9451 101.865 49.3131C102.114 49.783 102.232 50.3116 102.207 50.8431V54.4551C102.232 54.9865 102.114 55.5151 101.865 55.9851C101.651 56.353 101.325 56.643 100.935 56.8131C100.517 56.9901 100.068 57.078 99.6147 57.071ZM99.6147 56.159C99.8265 56.1714 100.039 56.1412 100.239 56.07C100.439 55.9989 100.622 55.8884 100.779 55.7451C100.931 55.569 101.047 55.3641 101.119 55.1426C101.191 54.921 101.218 54.6872 101.199 54.4551V50.8431C101.218 50.6109 101.191 50.3771 101.119 50.1555C101.047 49.934 100.931 49.7291 100.779 49.5531C100.622 49.4097 100.439 49.2992 100.239 49.2281C100.039 49.1569 99.8265 49.1267 99.6147 49.1391C99.4037 49.1263 99.1924 49.1564 98.9933 49.2275C98.7943 49.2987 98.6118 49.4094 98.4567 49.5531C98.3059 49.7301 98.1917 49.9352 98.1206 50.1566C98.0495 50.378 98.0231 50.6113 98.0427 50.8431V54.4551C98.0231 54.6868 98.0495 54.9201 98.1206 55.1415C98.1917 55.3629 98.3059 55.568 98.4567 55.7451C98.6118 55.8887 98.7943 55.9994 98.9933 56.0706C99.1924 56.1417 99.4037 56.1718 99.6147 56.159ZM105.531 56.9991C105.411 56.9991 105.293 56.9681 105.189 56.909C105.139 56.8843 105.097 56.8457 105.068 56.7979C105.039 56.75 105.025 56.6949 105.027 56.6391V48.5751C105.026 48.529 105.036 48.4834 105.056 48.4417C105.075 48.4001 105.105 48.3636 105.141 48.3351C105.224 48.2681 105.328 48.2302 105.435 48.227H107.699C108.145 48.2195 108.589 48.3074 108.999 48.4851C109.382 48.6561 109.701 48.9438 109.911 49.3071C110.156 49.772 110.272 50.2941 110.247 50.8191V50.9271C110.27 51.4526 110.152 51.9747 109.905 52.4391C109.692 52.8092 109.366 53.1015 108.975 53.2731C108.557 53.4501 108.108 53.538 107.655 53.5311H106.035V56.6391C106.037 56.6942 106.023 56.7488 105.996 56.7966C105.968 56.8444 105.928 56.8834 105.879 56.909C105.773 56.9695 105.653 57.0006 105.531 56.9991ZM106.031 52.6911H107.651C107.863 52.7034 108.076 52.6725 108.276 52.6003C108.476 52.5281 108.659 52.4161 108.815 52.271C108.966 52.0956 109.082 51.8917 109.154 51.6713C109.226 51.4508 109.253 51.2182 109.235 50.9871V50.8431C109.254 50.6109 109.227 50.3771 109.155 50.1555C109.083 49.934 108.967 49.7291 108.815 49.5531C108.659 49.4102 108.476 49.2999 108.277 49.2288C108.077 49.1577 107.866 49.1272 107.655 49.1391H106.035L106.031 52.6911ZM50.6547 70.9991C50.5623 70.9967 50.4709 70.9784 50.3847 70.9451C50.2939 70.9149 50.2116 70.8635 50.1447 70.795C50.0874 70.7377 50.0551 70.6601 50.0547 70.5791C50.0545 70.5453 50.0585 70.5117 50.0667 70.479L52.5267 62.4991C52.5419 62.4405 52.5703 62.3862 52.6099 62.3404C52.6494 62.2947 52.699 62.2586 52.7547 62.2351C52.8749 62.1791 53.0061 62.1504 53.1387 62.1511C53.2773 62.1489 53.4144 62.1797 53.5387 62.2411C53.5931 62.2651 53.6416 62.3006 53.6809 62.3451C53.7203 62.3896 53.7496 62.4421 53.7667 62.4991L56.2147 70.479C56.229 70.5048 56.2372 70.5336 56.2387 70.5631C56.2382 70.6041 56.229 70.6445 56.2118 70.6817C56.1946 70.719 56.1696 70.7521 56.1387 70.7791C56.0668 70.8455 55.9835 70.8984 55.8927 70.9351C55.8056 70.9732 55.7118 70.9935 55.6167 70.9951C55.5373 70.9971 55.4587 70.9785 55.3887 70.9411C55.3563 70.9222 55.3279 70.8972 55.3052 70.8673C55.2826 70.8374 55.2661 70.8034 55.2567 70.767L54.7167 68.979H51.5607L51.0447 70.767C51.0349 70.804 51.0176 70.8385 50.9939 70.8685C50.9701 70.8984 50.9405 70.9231 50.9067 70.9411C50.8289 70.9813 50.7422 71.0012 50.6547 70.9991ZM51.7947 68.1551H54.4827L53.1387 63.6431L51.7947 68.1551ZM58.9827 70.9991C58.8628 70.9991 58.745 70.9681 58.6407 70.909C58.5906 70.8843 58.5487 70.8457 58.52 70.7979C58.4913 70.75 58.477 70.6949 58.4787 70.6391V62.5751C58.478 62.529 58.4879 62.4834 58.5077 62.4417C58.5274 62.4001 58.5565 62.3636 58.5927 62.3351C58.6764 62.2681 58.7796 62.2302 58.8867 62.2271H61.1547C61.6015 62.2195 62.0447 62.3074 62.4547 62.4851C62.8377 62.6561 63.1569 62.9438 63.3667 63.3071C63.6104 63.7724 63.725 64.2944 63.6987 64.819V64.927C63.7221 65.4526 63.604 65.9747 63.3567 66.4391C63.1437 66.8092 62.8178 67.1015 62.4267 67.2731C62.0095 67.4501 61.5599 67.538 61.1067 67.531H59.4867V70.6391C59.4889 70.6942 59.4754 70.7488 59.4478 70.7966C59.4201 70.8444 59.3796 70.8834 59.3307 70.909C59.2248 70.9695 59.1046 71.0006 58.9827 70.9991ZM59.4827 66.6911H61.1027C61.315 66.7034 61.5277 66.6725 61.7277 66.6003C61.9278 66.5281 62.1112 66.4161 62.2667 66.2711C62.4184 66.0956 62.5336 65.8917 62.6058 65.6713C62.6779 65.4508 62.7054 65.2182 62.6867 64.9871V64.8431C62.7064 64.6109 62.6794 64.3771 62.6073 64.1555C62.5351 63.934 62.4193 63.7291 62.2667 63.5531C62.1102 63.4097 61.9266 63.2992 61.7267 63.2281C61.5267 63.1569 61.3145 63.1267 61.1027 63.1391H59.4827V66.6911ZM66.5987 70.9991C66.4788 70.9991 66.361 70.9681 66.2567 70.909C66.2066 70.8843 66.1648 70.8457 66.136 70.7979C66.1073 70.75 66.093 70.6949 66.0947 70.6391V62.5751C66.094 62.529 66.1039 62.4834 66.1237 62.4417C66.1434 62.4001 66.1725 62.3636 66.2087 62.3351C66.2924 62.2681 66.3956 62.2302 66.5027 62.2271H68.7707C69.2175 62.2195 69.6607 62.3074 70.0707 62.4851C70.4537 62.6561 70.7729 62.9438 70.9827 63.3071C71.2278 63.772 71.3438 64.2941 71.3187 64.819V64.927C71.3421 65.4526 71.224 65.9747 70.9767 66.4391C70.7637 66.8092 70.4378 67.1015 70.0467 67.2731C69.6295 67.4501 69.1799 67.538 68.7267 67.531H67.1067V70.6391C67.1089 70.6942 67.0954 70.7488 67.0678 70.7966C67.0401 70.8444 66.9996 70.8834 66.9507 70.909C66.8436 70.9702 66.722 71.0013 66.5987 70.9991ZM67.0987 66.6911H68.7187C68.931 66.7034 69.1437 66.6725 69.3437 66.6003C69.5438 66.5281 69.7272 66.4161 69.8827 66.2711C70.0344 66.0956 70.1496 65.8917 70.2218 65.6713C70.2939 65.4508 70.3214 65.2182 70.3027 64.9871V64.8431C70.3224 64.6109 70.2954 64.3771 70.2233 64.1555C70.1511 63.934 70.0353 63.7291 69.8827 63.5531C69.7262 63.4097 69.5426 63.2992 69.3427 63.2281C69.1427 63.1569 68.9305 63.1267 68.7187 63.1391H67.0987V66.6911ZM77.7747 70.9991C77.6564 71.0052 77.5397 70.9698 77.4447 70.899C77.4059 70.8708 77.3743 70.8338 77.3524 70.791C77.3306 70.7483 77.319 70.7011 77.3187 70.6531V62.5751C77.319 62.5271 77.3306 62.4798 77.3524 62.4371C77.3743 62.3943 77.4059 62.3573 77.4447 62.3291C77.5397 62.2583 77.6564 62.2229 77.7747 62.2291H79.8987C80.3519 62.2221 80.8015 62.31 81.2187 62.4871C81.6089 62.6571 81.9347 62.9471 82.1487 63.3151C82.3981 63.785 82.5163 64.3136 82.4907 64.8451V68.385C82.5163 68.9165 82.3981 69.4451 82.1487 69.9151C81.9347 70.283 81.6089 70.573 81.2187 70.7431C80.8013 70.9194 80.3517 71.0066 79.8987 70.9991H77.7747ZM78.3267 70.0871H79.8987C80.1105 70.0994 80.3227 70.0692 80.5227 69.998C80.7226 69.9269 80.9062 69.8164 81.0627 69.673C81.2153 69.497 81.3311 69.2921 81.4033 69.0706C81.4754 68.849 81.5024 68.6152 81.4827 68.3831V64.8431C81.5024 64.6109 81.4754 64.3771 81.4033 64.1555C81.3311 63.934 81.2153 63.7291 81.0627 63.5531C80.9062 63.4097 80.7226 63.2992 80.5227 63.2281C80.3227 63.1569 80.1105 63.1267 79.8987 63.1391H78.3267V70.0871ZM85.7667 70.9991C85.6562 70.9995 85.548 70.9682 85.4547 70.909C85.4087 70.8811 85.371 70.8413 85.3457 70.7938C85.3203 70.7463 85.3083 70.6928 85.3107 70.6391V62.5871C85.3083 62.5333 85.3203 62.4798 85.3457 62.4323C85.371 62.3848 85.4087 62.345 85.4547 62.317C85.548 62.2579 85.6562 62.2266 85.7667 62.2271H90.0387C90.0928 62.2224 90.1471 62.2335 90.195 62.2591C90.2429 62.2846 90.2824 62.3235 90.3087 62.3711C90.3596 62.4629 90.3864 62.5661 90.3867 62.6711C90.3896 62.7866 90.359 62.9005 90.2987 62.9991C90.2728 63.0442 90.2351 63.0814 90.1897 63.1068C90.1442 63.1322 90.0927 63.1447 90.0407 63.1431H86.3207V66.187H88.1927C88.2435 66.1848 88.2939 66.1958 88.3392 66.2189C88.3844 66.2421 88.4228 66.2766 88.4507 66.319C88.5108 66.4074 88.5422 66.5122 88.5407 66.6191C88.5403 66.7164 88.5133 66.8119 88.4627 66.8951C88.4342 66.9398 88.3939 66.9758 88.3463 66.9991C88.2986 67.0224 88.2455 67.032 88.1927 67.0271H86.3187V70.0871H90.0387C90.0901 70.0851 90.141 70.0969 90.1864 70.1211C90.2317 70.1454 90.2698 70.1812 90.2967 70.225C90.3586 70.3238 90.3899 70.4386 90.3867 70.555C90.3864 70.66 90.3596 70.7632 90.3087 70.8551C90.2824 70.9026 90.2429 70.9415 90.195 70.967C90.1471 70.9926 90.0928 71.0037 90.0387 70.9991H85.7667ZM95.1147 71.0711C94.9814 71.0717 94.8498 71.0408 94.7307 70.9811C94.6756 70.9561 94.626 70.9204 94.5848 70.8761C94.5436 70.8318 94.5116 70.7798 94.4907 70.7231L92.0307 62.7431C92.0224 62.7104 92.0184 62.6768 92.0187 62.6431C92.0197 62.6021 92.0292 62.5619 92.0464 62.5247C92.0636 62.4876 92.0882 62.4543 92.1187 62.4271C92.187 62.3604 92.2688 62.3092 92.3587 62.2771C92.4467 62.2426 92.5402 62.2243 92.6347 62.2231C92.716 62.2215 92.7963 62.24 92.8687 62.2771C92.9014 62.2962 92.9298 62.3219 92.9522 62.3526C92.9745 62.3832 92.9904 62.4181 92.9987 62.4551L95.1107 69.583L97.2107 62.4551C97.2201 62.4187 97.2366 62.3847 97.2592 62.3548C97.2819 62.3249 97.3103 62.2999 97.3427 62.2811C97.4127 62.2436 97.4913 62.225 97.5707 62.2271C97.6697 62.2277 97.7676 62.2481 97.8587 62.2871C97.9471 62.3222 98.0284 62.373 98.0987 62.4371C98.1304 62.4647 98.1557 62.4988 98.1729 62.5371C98.1902 62.5754 98.199 62.617 98.1987 62.659C98.198 62.6712 98.196 62.6833 98.1927 62.6951C98.1888 62.7107 98.1867 62.7269 98.1867 62.7431L95.7387 70.7231C95.7216 70.78 95.6923 70.8325 95.6529 70.877C95.6136 70.9215 95.5651 70.957 95.5107 70.9811C95.3876 71.0418 95.2519 71.0726 95.1147 71.0711ZM100.899 70.9991C100.788 70.9995 100.68 70.9682 100.587 70.909C100.541 70.8811 100.503 70.8413 100.478 70.7938C100.452 70.7463 100.44 70.6928 100.443 70.6391V62.5871C100.44 62.5333 100.452 62.4798 100.478 62.4323C100.503 62.3848 100.541 62.345 100.587 62.317C100.68 62.2579 100.788 62.2266 100.899 62.2271H105.171C105.225 62.2224 105.279 62.2335 105.327 62.2591C105.375 62.2846 105.414 62.3235 105.441 62.3711C105.492 62.4629 105.518 62.5661 105.519 62.6711C105.521 62.7868 105.49 62.9007 105.429 62.9991C105.403 63.0442 105.365 63.0814 105.32 63.1068C105.274 63.1322 105.223 63.1447 105.171 63.1431H101.451V66.187H103.323C103.373 66.1848 103.424 66.1958 103.469 66.2189C103.514 66.2421 103.553 66.2766 103.581 66.319C103.641 66.4074 103.672 66.5122 103.671 66.6191C103.67 66.7164 103.643 66.8119 103.593 66.8951C103.564 66.9398 103.524 66.9758 103.476 66.9991C103.429 67.0224 103.375 67.032 103.323 67.0271H101.451V70.0871H105.171C105.222 70.0851 105.273 70.0969 105.318 70.1211C105.364 70.1454 105.402 70.1812 105.429 70.225C105.491 70.3238 105.522 70.4386 105.519 70.555C105.518 70.66 105.492 70.7632 105.441 70.8551C105.414 70.9026 105.375 70.9415 105.327 70.967C105.279 70.9926 105.225 71.0037 105.171 70.9991H100.899ZM108.267 70.9991C108.156 70.9995 108.048 70.9682 107.955 70.909C107.909 70.8811 107.871 70.8413 107.846 70.7938C107.82 70.7463 107.808 70.6928 107.811 70.6391V62.5751C107.808 62.5199 107.823 62.4654 107.852 62.4184C107.88 62.3714 107.923 62.334 107.973 62.3111C108.078 62.2557 108.196 62.2268 108.315 62.2271C108.436 62.2254 108.556 62.2543 108.663 62.3111C108.712 62.3351 108.752 62.3729 108.78 62.4198C108.808 62.4667 108.821 62.5206 108.819 62.5751V70.0871H112.107C112.157 70.0842 112.206 70.0957 112.25 70.1201C112.293 70.1446 112.329 70.181 112.353 70.225C112.406 70.3224 112.433 70.4321 112.431 70.5431C112.431 70.652 112.405 70.7593 112.353 70.8551C112.33 70.9003 112.295 70.938 112.251 70.9636C112.207 70.9892 112.157 71.0015 112.107 70.9991H108.267ZM116.907 71.0711C116.455 71.0784 116.008 70.9905 115.593 70.8131C115.205 70.6414 114.882 70.3516 114.669 69.9851C114.419 69.5151 114.301 68.9865 114.327 68.4551V64.8431C114.301 64.3116 114.419 63.783 114.669 63.3131C114.882 62.9465 115.205 62.6567 115.593 62.4851C116.008 62.3076 116.455 62.2197 116.907 62.2271C117.36 62.2201 117.809 62.308 118.227 62.4851C118.617 62.6551 118.943 62.9451 119.157 63.3131C119.406 63.783 119.524 64.3116 119.499 64.8431V68.4551C119.524 68.9865 119.406 69.5151 119.157 69.9851C118.943 70.353 118.617 70.643 118.227 70.8131C117.809 70.9901 117.36 71.078 116.907 71.0711ZM116.907 70.159C117.119 70.1714 117.331 70.1412 117.531 70.07C117.731 69.9989 117.914 69.8884 118.071 69.7451C118.223 69.569 118.339 69.3641 118.411 69.1426C118.483 68.921 118.51 68.6872 118.491 68.4551V64.8431C118.51 64.6109 118.483 64.3771 118.411 64.1555C118.339 63.934 118.223 63.7291 118.071 63.5531C117.914 63.4097 117.731 63.2992 117.531 63.2281C117.331 63.1569 117.119 63.1267 116.907 63.1391C116.696 63.1263 116.484 63.1564 116.285 63.2275C116.086 63.2987 115.904 63.4094 115.749 63.5531C115.598 63.7301 115.484 63.9352 115.413 64.1566C115.342 64.378 115.315 64.6113 115.335 64.8431V68.4551C115.315 68.6868 115.342 68.9201 115.413 69.1415C115.484 69.3629 115.598 69.568 115.749 69.7451C115.904 69.8887 116.086 69.9994 116.285 70.0706C116.484 70.1417 116.696 70.1718 116.907 70.159ZM122.823 70.9991C122.703 70.9991 122.585 70.9681 122.481 70.909C122.431 70.8843 122.389 70.8457 122.36 70.7979C122.331 70.75 122.317 70.6949 122.319 70.6391V62.5751C122.318 62.529 122.328 62.4834 122.348 62.4417C122.367 62.4001 122.397 62.3636 122.433 62.3351C122.516 62.2681 122.62 62.2302 122.727 62.2271H124.999C125.445 62.2195 125.889 62.3074 126.299 62.4851C126.682 62.6561 127.001 62.9438 127.211 63.3071C127.453 63.7727 127.566 64.2948 127.539 64.819V64.927C127.563 65.4524 127.445 65.9745 127.199 66.4391C126.986 66.8092 126.66 67.1015 126.269 67.2731C125.851 67.4501 125.402 67.538 124.949 67.531H123.329V70.6391C123.331 70.6942 123.317 70.7488 123.29 70.7966C123.262 70.8444 123.222 70.8834 123.173 70.909C123.066 70.9699 122.945 71.001 122.823 70.9991ZM123.323 66.6911H124.943C125.155 66.7034 125.368 66.6725 125.568 66.6003C125.768 66.5281 125.951 66.4161 126.107 66.2711C126.258 66.0956 126.374 65.8917 126.446 65.6713C126.518 65.4508 126.545 65.2182 126.527 64.9871V64.8431C126.546 64.6109 126.519 64.3771 126.447 64.1555C126.375 63.934 126.259 63.7291 126.107 63.5531C125.95 63.4097 125.767 63.2992 125.567 63.2281C125.367 63.1569 125.155 63.1267 124.943 63.1391H123.323V66.6911ZM130.399 70.9991C130.288 70.9995 130.18 70.9682 130.087 70.909C130.041 70.8811 130.003 70.8413 129.978 70.7938C129.952 70.7463 129.94 70.6928 129.943 70.6391V62.5871C129.94 62.5333 129.952 62.4798 129.978 62.4323C130.003 62.3848 130.041 62.345 130.087 62.317C130.18 62.2579 130.288 62.2266 130.399 62.2271H134.671C134.725 62.2224 134.779 62.2335 134.827 62.2591C134.875 62.2846 134.914 62.3235 134.941 62.3711C134.992 62.4629 135.018 62.5661 135.019 62.6711C135.02 62.7854 134.989 62.8978 134.929 62.9951C134.903 63.0402 134.865 63.0774 134.82 63.1028C134.774 63.1282 134.723 63.1407 134.671 63.1391H130.951V66.187H132.819C132.869 66.1848 132.92 66.1958 132.965 66.2189C133.01 66.2421 133.049 66.2766 133.077 66.319C133.137 66.4074 133.168 66.5122 133.167 66.6191C133.166 66.7164 133.139 66.8119 133.089 66.8951C133.06 66.9398 133.02 66.9758 132.972 66.9991C132.925 67.0224 132.871 67.032 132.819 67.0271H130.947V70.0871H134.667C134.718 70.0851 134.769 70.0969 134.814 70.1211C134.86 70.1454 134.898 70.1812 134.925 70.225C134.987 70.3238 135.018 70.4386 135.015 70.555C135.014 70.66 134.988 70.7632 134.937 70.8551C134.91 70.9026 134.871 70.9415 134.823 70.967C134.775 70.9926 134.721 71.0037 134.667 70.9991H130.399ZM141.967 71.0231C141.918 71.0224 141.869 71.0113 141.825 70.9906C141.78 70.9699 141.741 70.9401 141.709 70.9031C141.63 70.8204 141.563 70.7276 141.509 70.6271L139.709 67.1111H138.315V70.6391C138.317 70.6942 138.303 70.7488 138.276 70.7966C138.248 70.8444 138.208 70.8834 138.159 70.909C138.053 70.9695 137.933 71.0006 137.811 70.9991C137.691 70.9991 137.573 70.9681 137.469 70.909C137.419 70.8843 137.377 70.8457 137.348 70.7979C137.319 70.75 137.305 70.6949 137.307 70.6391V62.5751C137.305 62.5302 137.314 62.4857 137.331 62.4443C137.348 62.4029 137.374 62.3657 137.407 62.3351C137.477 62.2699 137.569 62.2317 137.665 62.2271H139.865C140.319 62.2221 140.771 62.2972 141.199 62.449C141.591 62.5883 141.93 62.8489 142.165 63.1931C142.427 63.6237 142.552 64.1237 142.525 64.6271C142.539 65.0435 142.459 65.4579 142.291 65.8391C142.149 66.1427 141.927 66.402 141.649 66.5891C141.371 66.7713 141.062 66.8996 140.737 66.9671L142.513 70.3391C142.527 70.3679 142.539 70.398 142.549 70.4291C142.556 70.4544 142.56 70.4806 142.561 70.5071C142.559 70.5987 142.528 70.6873 142.471 70.7591C142.41 70.8395 142.332 70.9051 142.243 70.951C142.157 70.9975 142.061 71.0222 141.963 71.0231H141.967ZM138.315 66.2711H139.863C140.292 66.2917 140.716 66.1646 141.063 65.9111C141.227 65.7579 141.354 65.5688 141.433 65.3585C141.512 65.1483 141.541 64.9226 141.519 64.6991C141.542 64.4764 141.513 64.2514 141.434 64.042C141.354 63.8327 141.227 63.6447 141.063 63.4931C140.714 63.243 140.291 63.1182 139.863 63.1391H138.315V66.2711ZM147.063 71.0991C146.604 71.1085 146.147 71.0291 145.719 70.8651C145.388 70.7431 145.086 70.5553 144.831 70.3131C144.658 70.1697 144.546 69.9658 144.519 69.7431C144.52 69.6569 144.543 69.5724 144.585 69.4971C144.627 69.4153 144.684 69.3421 144.753 69.281C144.809 69.2259 144.884 69.1938 144.963 69.1911C145.017 69.1946 145.07 69.2092 145.119 69.234C145.167 69.2587 145.21 69.2931 145.245 69.3351C145.337 69.4311 145.453 69.5451 145.593 69.6771C145.753 69.8221 145.938 69.9379 146.139 70.0191C146.418 70.1248 146.716 70.1737 147.015 70.163C147.315 70.1693 147.613 70.1134 147.891 69.9991C148.13 69.8982 148.333 69.7265 148.473 69.5071C148.621 69.2549 148.694 68.9654 148.683 68.673C148.696 68.3778 148.621 68.0854 148.467 67.833C148.319 67.6133 148.124 67.4289 147.897 67.2931C147.652 67.1445 147.395 67.016 147.129 66.909L146.289 66.5671C146.014 66.456 145.754 66.3109 145.515 66.135C145.279 65.9585 145.086 65.7308 144.951 65.4691C144.796 65.1477 144.722 64.7935 144.735 64.437C144.721 64.0586 144.803 63.6827 144.975 63.3451C145.125 63.067 145.344 62.8316 145.611 62.6611C145.874 62.4935 146.164 62.3737 146.469 62.3071C146.766 62.2409 147.07 62.2074 147.375 62.2071C147.604 62.2079 147.832 62.224 148.059 62.2551C148.29 62.2852 148.519 62.3334 148.743 62.3991C148.931 62.4502 149.11 62.5334 149.271 62.6451C149.33 62.6832 149.38 62.7355 149.415 62.7972C149.45 62.8589 149.469 62.9282 149.471 62.9991C149.468 63.0753 149.452 63.1505 149.423 63.2211C149.39 63.3058 149.341 63.3833 149.279 63.449C149.248 63.4818 149.211 63.5076 149.169 63.5249C149.128 63.5421 149.084 63.5504 149.039 63.5491C148.923 63.5398 148.811 63.5005 148.715 63.4351C148.552 63.3434 148.381 63.2671 148.205 63.2071C147.935 63.1226 147.653 63.0841 147.371 63.0931C147.096 63.091 146.823 63.1315 146.561 63.2131C146.325 63.283 146.116 63.4224 145.961 63.6131C145.804 63.8239 145.726 64.0827 145.739 64.3451C145.728 64.5988 145.804 64.8485 145.955 65.0531C146.107 65.2441 146.3 65.3997 146.519 65.5091C146.767 65.6361 147.024 65.7463 147.287 65.8391C147.567 65.9391 147.847 66.055 148.127 66.187C148.403 66.317 148.663 66.4802 148.901 66.673C149.145 66.8763 149.34 67.1329 149.471 67.423C149.626 67.7888 149.7 68.1839 149.687 68.5811C149.707 69.0759 149.59 69.5666 149.349 69.9991C149.13 70.3627 148.805 70.6514 148.419 70.8271C147.992 71.0149 147.529 71.1077 147.063 71.0991Z" fill="black"/>
<path d="M88.1846 142.003C88.0772 141.998 87.9733 141.964 87.8846 141.903C87.8373 141.877 87.7978 141.839 87.7703 141.792C87.7429 141.746 87.7285 141.693 87.7286 141.639V140.479C87.7275 140.154 87.8283 139.837 88.0166 139.573C88.2277 139.277 88.478 139.01 88.7606 138.781C89.0646 138.529 89.3866 138.285 89.7266 138.049C90.0666 137.813 90.3886 137.569 90.6926 137.317C90.9765 137.086 91.227 136.817 91.4366 136.517C91.6249 136.249 91.7255 135.93 91.7246 135.603C91.724 135.368 91.6707 135.136 91.5686 134.925C91.4621 134.702 91.296 134.513 91.0886 134.379C90.8363 134.225 90.5439 134.15 90.2486 134.163C89.902 134.153 89.5634 134.268 89.2946 134.487C89.1591 134.611 89.0535 134.763 88.9859 134.934C88.9183 135.104 88.8905 135.288 88.9046 135.471C88.9036 135.524 88.8908 135.577 88.8669 135.625C88.843 135.672 88.8087 135.714 88.7666 135.747C88.6556 135.833 88.5169 135.876 88.3766 135.867C88.3149 135.871 88.2531 135.861 88.1952 135.84C88.1374 135.818 88.0847 135.784 88.0406 135.741C87.9457 135.607 87.903 135.442 87.9206 135.279C87.913 134.897 88.0241 134.521 88.2386 134.205C88.4541 133.894 88.7481 133.646 89.0906 133.485C89.4558 133.311 89.856 133.223 90.2606 133.227C90.6971 133.22 91.1283 133.324 91.5146 133.527C91.8786 133.72 92.1851 134.005 92.4026 134.355C92.626 134.719 92.7405 135.14 92.7326 135.567C92.7387 135.971 92.6395 136.369 92.4446 136.723C92.249 137.072 92 137.387 91.7066 137.659C91.4057 137.94 91.0848 138.198 90.7466 138.433C90.4066 138.669 90.0866 138.895 89.7866 139.111C89.5154 139.301 89.2677 139.523 89.0486 139.771C88.8691 139.964 88.7666 140.216 88.7606 140.479V141.091H92.4606C92.5092 141.091 92.557 141.104 92.5999 141.127C92.6428 141.15 92.6794 141.183 92.7066 141.223C92.7756 141.317 92.8109 141.431 92.8066 141.547C92.809 141.661 92.7739 141.773 92.7066 141.865C92.6797 141.907 92.6427 141.942 92.5991 141.966C92.5554 141.99 92.5065 142.003 92.4566 142.003H88.1846ZM97.5846 142.075C97.132 142.083 96.6828 141.995 96.2666 141.817C95.8797 141.645 95.5571 141.355 95.3446 140.989C95.0952 140.519 94.977 139.99 95.0026 139.459V135.847C94.977 135.316 95.0952 134.787 95.3446 134.317C95.5576 133.95 95.881 133.661 96.2686 133.489C96.6836 133.312 97.1313 133.224 97.5826 133.231C98.0318 133.225 98.4774 133.313 98.8906 133.489C99.2817 133.66 99.6091 133.95 99.8266 134.317C100.08 134.786 100.2 135.315 100.175 135.847V139.459C100.2 139.991 100.079 140.521 99.8246 140.989C99.6071 141.356 99.2797 141.646 98.8886 141.817C98.4754 141.993 98.0298 142.081 97.5806 142.075H97.5846ZM97.5846 141.163C97.7954 141.174 98.0064 141.143 98.2052 141.072C98.404 141.001 98.5867 140.891 98.7426 140.749C98.8963 140.574 99.013 140.369 99.0855 140.147C99.158 139.925 99.1849 139.691 99.1646 139.459V135.847C99.1843 135.615 99.1573 135.381 99.0852 135.159C99.0131 134.938 98.8972 134.733 98.7446 134.557C98.5882 134.414 98.4045 134.303 98.2046 134.232C98.0046 134.161 97.7925 134.131 97.5806 134.143C97.3696 134.13 97.1583 134.16 96.9592 134.231C96.7602 134.303 96.5777 134.413 96.4226 134.557C96.2718 134.734 96.1576 134.939 96.0865 135.161C96.0155 135.382 95.989 135.615 96.0086 135.847V139.459C95.989 139.691 96.0155 139.924 96.0865 140.145C96.1576 140.367 96.2718 140.572 96.4226 140.749C96.5777 140.893 96.7602 141.003 96.9592 141.074C97.1583 141.146 97.3696 141.176 97.5806 141.163H97.5846ZM103.713 142.003C103.591 142.005 103.471 141.973 103.365 141.913C103.316 141.887 103.275 141.848 103.248 141.801C103.22 141.753 103.206 141.698 103.209 141.643V134.731L102.765 135.391C102.731 135.433 102.688 135.467 102.639 135.491C102.599 135.51 102.556 135.52 102.513 135.521C102.462 135.521 102.412 135.51 102.367 135.487C102.322 135.464 102.284 135.43 102.255 135.389C102.19 135.307 102.154 135.206 102.155 135.101C102.157 135.019 102.18 134.938 102.221 134.867C102.254 134.797 102.301 134.734 102.359 134.681L103.473 133.375C103.503 133.328 103.544 133.289 103.593 133.261C103.648 133.231 103.71 133.217 103.773 133.219C103.881 133.218 103.988 133.249 104.079 133.309C104.124 133.338 104.16 133.378 104.184 133.425C104.208 133.473 104.22 133.526 104.217 133.579V141.643C104.219 141.698 104.205 141.753 104.178 141.801C104.15 141.848 104.109 141.887 104.061 141.913C103.955 141.973 103.835 142.005 103.713 142.003ZM109.257 142.075C108.878 142.082 108.502 142.021 108.145 141.895C107.848 141.792 107.575 141.628 107.345 141.415C107.145 141.224 106.985 140.996 106.875 140.743C106.769 140.505 106.714 140.247 106.713 139.987C106.705 139.924 106.712 139.86 106.733 139.799C106.754 139.739 106.788 139.684 106.833 139.639C106.934 139.567 107.057 139.532 107.181 139.539C107.308 139.537 107.433 139.566 107.547 139.623C107.601 139.653 107.646 139.699 107.674 139.755C107.703 139.81 107.715 139.873 107.709 139.935C107.702 140.171 107.779 140.403 107.925 140.589C108.076 140.775 108.272 140.919 108.495 141.009C108.744 141.111 109.011 141.162 109.281 141.159C109.494 141.172 109.709 141.142 109.911 141.071C110.113 141 110.298 140.889 110.457 140.745C110.609 140.569 110.725 140.364 110.797 140.142C110.869 139.921 110.896 139.687 110.877 139.455V137.775C110.679 138.029 110.415 138.224 110.115 138.339C109.799 138.46 109.463 138.522 109.125 138.519C108.708 138.527 108.295 138.453 107.907 138.303C107.542 138.155 107.237 137.891 107.037 137.553C106.799 137.108 106.687 136.607 106.713 136.103V135.851C106.688 135.32 106.806 134.792 107.055 134.323C107.266 133.954 107.59 133.662 107.979 133.489C108.394 133.312 108.841 133.224 109.293 133.231C109.746 133.224 110.195 133.312 110.613 133.489C111.004 133.661 111.33 133.953 111.543 134.323C111.791 134.791 111.909 135.318 111.885 135.847V139.459C111.909 139.989 111.789 140.516 111.537 140.983C111.319 141.354 110.989 141.646 110.595 141.817C110.171 141.994 109.716 142.082 109.257 142.075ZM109.293 137.683C109.708 137.706 110.119 137.58 110.451 137.329C110.605 137.178 110.723 136.995 110.797 136.792C110.87 136.59 110.898 136.373 110.877 136.159V135.803C110.896 135.571 110.869 135.337 110.797 135.115C110.725 134.894 110.609 134.689 110.457 134.513C110.3 134.37 110.117 134.259 109.917 134.188C109.717 134.117 109.504 134.087 109.293 134.099C109.082 134.086 108.87 134.116 108.671 134.187C108.472 134.259 108.29 134.369 108.135 134.513C107.984 134.69 107.87 134.895 107.799 135.117C107.727 135.338 107.701 135.571 107.721 135.803V136.055C107.697 136.282 107.722 136.512 107.794 136.729C107.865 136.946 107.981 137.146 108.135 137.315C108.461 137.579 108.874 137.71 109.293 137.683ZM71.5046 156.003C71.3848 156.003 71.2669 155.972 71.1626 155.913C71.1126 155.888 71.0707 155.85 71.0419 155.802C71.0132 155.754 70.9989 155.699 71.0006 155.643V147.579C70.9969 147.523 71.0104 147.467 71.0393 147.419C71.0683 147.37 71.1113 147.332 71.1626 147.309C71.2692 147.257 71.3862 147.231 71.5046 147.231C71.6169 147.227 71.7284 147.252 71.8286 147.303C71.9222 147.356 72.0038 147.427 72.0686 147.513C72.1521 147.624 72.2244 147.742 72.2846 147.867L75.2606 153.711V147.579C75.2584 147.524 75.2726 147.469 75.3014 147.422C75.3303 147.375 75.3725 147.338 75.4226 147.315C75.5281 147.26 75.6455 147.231 75.7646 147.231C75.8858 147.229 76.0055 147.258 76.1126 147.315C76.1615 147.339 76.2023 147.377 76.23 147.424C76.2577 147.471 76.2711 147.525 76.2686 147.579V155.643C76.2708 155.698 76.2573 155.753 76.2297 155.801C76.2021 155.848 76.1615 155.887 76.1126 155.913C76.0067 155.973 75.8866 156.005 75.7646 156.003C75.6347 156.002 75.5092 155.956 75.4106 155.871C75.301 155.781 75.2093 155.671 75.1406 155.547L72.0086 149.511V155.643C72.0108 155.698 71.9973 155.753 71.9697 155.801C71.9421 155.848 71.9015 155.887 71.8526 155.913C71.7467 155.973 71.6266 156.005 71.5046 156.003ZM79.6406 156.003C79.5301 156.003 79.4219 155.972 79.3286 155.913C79.2826 155.885 79.2449 155.845 79.2196 155.798C79.1943 155.75 79.1822 155.697 79.1846 155.643V147.591C79.1822 147.537 79.1943 147.484 79.2196 147.436C79.2449 147.389 79.2826 147.349 79.3286 147.321C79.4219 147.262 79.5301 147.231 79.6406 147.231H83.9126C83.9667 147.226 84.021 147.237 84.0689 147.263C84.1168 147.289 84.1563 147.327 84.1826 147.375C84.2335 147.467 84.2603 147.57 84.2606 147.675C84.2621 147.789 84.2309 147.902 84.1706 147.999C84.1447 148.044 84.107 148.081 84.0616 148.107C84.0161 148.132 83.9646 148.145 83.9126 148.143H80.1926V151.191H82.0646C82.1154 151.189 82.1658 151.2 82.2111 151.223C82.2563 151.246 82.2947 151.28 82.3226 151.323C82.3827 151.411 82.4142 151.516 82.4126 151.623C82.4122 151.72 82.3852 151.816 82.3346 151.899C82.3061 151.944 82.2658 151.98 82.2182 152.003C82.1706 152.026 82.1174 152.036 82.0646 152.031H80.1926V155.091H83.9126C83.964 155.089 84.015 155.101 84.0603 155.125C84.1056 155.149 84.1437 155.185 84.1706 155.229C84.2325 155.328 84.2638 155.443 84.2606 155.559C84.2603 155.664 84.2335 155.767 84.1826 155.859C84.1563 155.907 84.1168 155.945 84.0689 155.971C84.021 155.997 83.9667 156.008 83.9126 156.003H79.6406ZM88.9166 156.075C88.7814 156.075 88.648 156.044 88.5266 155.985C88.4711 155.962 88.4214 155.927 88.3809 155.882C88.3405 155.837 88.3103 155.784 88.2926 155.727L85.9166 147.747C85.9082 147.712 85.9042 147.675 85.9046 147.639C85.9052 147.599 85.9144 147.559 85.9317 147.523C85.9489 147.487 85.9738 147.455 86.0046 147.429C86.0727 147.366 86.1521 147.318 86.2386 147.285C86.3244 147.25 86.416 147.232 86.5086 147.231C86.5936 147.23 86.6777 147.249 86.7546 147.285C86.7902 147.3 86.8214 147.324 86.8455 147.355C86.8695 147.385 86.8857 147.421 86.8926 147.459L88.9206 154.587L90.0606 150.195C90.074 150.143 90.099 150.094 90.1336 150.052C90.1681 150.011 90.2116 149.978 90.2606 149.955C90.3598 149.907 90.4685 149.883 90.5786 149.883C90.6908 149.881 90.8018 149.906 90.9026 149.955C90.9494 149.978 90.9902 150.012 91.0215 150.053C91.0527 150.095 91.0737 150.144 91.0826 150.195L92.2346 154.587L94.2626 147.459C94.2724 147.422 94.2897 147.387 94.3134 147.358C94.3372 147.328 94.3669 147.303 94.4006 147.285C94.473 147.248 94.5534 147.229 94.6346 147.231C94.7312 147.231 94.8268 147.249 94.9166 147.285C95.0031 147.318 95.0825 147.366 95.1506 147.429C95.1814 147.455 95.2063 147.487 95.2235 147.523C95.2408 147.559 95.25 147.599 95.2506 147.639C95.2512 147.676 95.243 147.713 95.2266 147.747L92.8746 155.727C92.8537 155.784 92.8217 155.836 92.7805 155.88C92.7393 155.924 92.6897 155.96 92.6346 155.985C92.5103 156.046 92.3732 156.077 92.2346 156.075C92.0994 156.075 91.966 156.044 91.8446 155.985C91.7897 155.963 91.741 155.928 91.7024 155.883C91.6638 155.838 91.6364 155.785 91.6226 155.727L90.5786 151.767L89.5466 155.727C89.5295 155.784 89.5002 155.836 89.4609 155.881C89.4215 155.925 89.373 155.961 89.3186 155.985C89.1937 156.047 89.0559 156.077 88.9166 156.075ZM103.473 156.003C103.353 156.003 103.235 155.972 103.131 155.913C103.081 155.888 103.039 155.85 103.01 155.802C102.981 155.754 102.967 155.699 102.969 155.643V152.603C102.969 152.563 102.961 152.523 102.945 152.487L100.461 147.855C100.446 147.818 100.434 147.78 100.425 147.741C100.417 147.711 100.413 147.681 100.413 147.651C100.414 147.61 100.423 147.57 100.44 147.533C100.457 147.495 100.482 147.462 100.513 147.435C100.579 147.369 100.658 147.318 100.745 147.285C100.83 147.25 100.922 147.232 101.015 147.231C101.09 147.227 101.165 147.25 101.225 147.297C101.286 147.354 101.337 147.422 101.375 147.497L103.475 151.613L105.585 147.495C105.623 147.418 105.676 147.35 105.741 147.295C105.799 147.251 105.871 147.228 105.945 147.231C106.037 147.232 106.129 147.25 106.215 147.285C106.302 147.318 106.382 147.369 106.449 147.435C106.479 147.462 106.504 147.495 106.521 147.533C106.538 147.57 106.548 147.61 106.549 147.651C106.548 147.681 106.544 147.711 106.537 147.741C106.528 147.78 106.516 147.818 106.501 147.855L104.013 152.487C103.988 152.522 103.975 152.564 103.977 152.607V155.643C103.979 155.698 103.965 155.753 103.938 155.801C103.91 155.848 103.869 155.887 103.821 155.913C103.715 155.973 103.595 156.005 103.473 156.003ZM111.141 156.075C110.689 156.082 110.242 155.994 109.827 155.817C109.439 155.645 109.116 155.356 108.903 154.989C108.653 154.519 108.535 153.99 108.561 153.459V149.847C108.535 149.316 108.653 148.787 108.903 148.317C109.116 147.95 109.439 147.661 109.827 147.489C110.243 147.311 110.692 147.223 111.145 147.231C111.598 147.224 112.047 147.312 112.465 147.489C112.855 147.659 113.181 147.949 113.395 148.317C113.644 148.787 113.762 149.316 113.737 149.847V153.459C113.762 153.99 113.644 154.519 113.395 154.989C113.181 155.357 112.855 155.647 112.465 155.817C112.047 155.994 111.598 156.082 111.145 156.075H111.141ZM111.141 155.163C111.352 155.175 111.565 155.145 111.765 155.074C111.965 155.003 112.148 154.892 112.305 154.749C112.457 154.573 112.573 154.368 112.645 154.146C112.717 153.925 112.744 153.691 112.725 153.459V149.847C112.744 149.615 112.717 149.381 112.645 149.159C112.573 148.938 112.457 148.733 112.305 148.557C112.149 148.414 111.966 148.304 111.766 148.233C111.567 148.162 111.356 148.131 111.145 148.143C110.934 148.13 110.722 148.16 110.523 148.231C110.324 148.303 110.142 148.413 109.987 148.557C109.836 148.734 109.722 148.939 109.651 149.161C109.579 149.382 109.553 149.615 109.573 149.847V153.459C109.553 153.691 109.579 153.924 109.651 154.145C109.722 154.367 109.836 154.572 109.987 154.749C110.142 154.893 110.324 155.003 110.523 155.074C110.722 155.146 110.934 155.176 111.145 155.163H111.141ZM121.209 156.027C121.16 156.026 121.111 156.015 121.067 155.995C121.022 155.974 120.983 155.944 120.951 155.907C120.872 155.824 120.805 155.731 120.751 155.631L118.951 152.115H117.561V155.643C117.563 155.698 117.549 155.753 117.522 155.801C117.494 155.848 117.453 155.887 117.405 155.913C117.299 155.973 117.179 156.005 117.057 156.003C116.937 156.003 116.819 155.972 116.715 155.913C116.665 155.888 116.623 155.85 116.594 155.802C116.565 155.754 116.551 155.699 116.553 155.643V147.579C116.551 147.534 116.56 147.49 116.577 147.448C116.594 147.407 116.62 147.37 116.653 147.339C116.723 147.274 116.815 147.236 116.911 147.231H119.111C119.565 147.226 120.016 147.301 120.445 147.453C120.837 147.592 121.176 147.853 121.411 148.197C121.673 148.628 121.798 149.128 121.771 149.631C121.785 150.047 121.705 150.462 121.537 150.843C121.395 151.147 121.173 151.406 120.895 151.593C120.617 151.775 120.308 151.904 119.983 151.971L121.759 155.343C121.773 155.372 121.785 155.402 121.795 155.433C121.802 155.458 121.806 155.485 121.807 155.511C121.805 155.603 121.774 155.691 121.717 155.763C121.656 155.843 121.578 155.909 121.489 155.955C121.403 156.001 121.306 156.026 121.209 156.027ZM117.561 151.275H119.109C119.538 151.296 119.962 151.169 120.309 150.915C120.473 150.762 120.6 150.573 120.679 150.362C120.758 150.152 120.787 149.926 120.765 149.703C120.788 149.48 120.759 149.255 120.679 149.046C120.6 148.837 120.473 148.649 120.309 148.497C119.96 148.247 119.537 148.122 119.109 148.143H117.561V151.275ZM124.725 156.003C124.605 156.003 124.487 155.972 124.383 155.913C124.333 155.888 124.291 155.85 124.262 155.802C124.233 155.754 124.219 155.699 124.221 155.643V147.579C124.218 147.524 124.233 147.469 124.261 147.422C124.29 147.375 124.332 147.338 124.383 147.315C124.488 147.26 124.605 147.231 124.725 147.231C124.846 147.229 124.966 147.258 125.073 147.315C125.121 147.339 125.162 147.377 125.19 147.424C125.218 147.471 125.231 147.525 125.229 147.579V151.551L128.457 147.375C128.491 147.328 128.536 147.291 128.589 147.266C128.641 147.24 128.699 147.229 128.757 147.231C128.85 147.233 128.941 147.26 129.021 147.309C129.105 147.358 129.178 147.423 129.237 147.501C129.291 147.572 129.32 147.658 129.321 147.747C129.32 147.783 129.316 147.819 129.309 147.855C129.3 147.896 129.279 147.934 129.249 147.963L126.801 151.023L129.645 155.343C129.684 155.395 129.705 155.458 129.705 155.523C129.704 155.612 129.675 155.698 129.621 155.769C129.563 155.846 129.489 155.91 129.405 155.955C129.316 156.003 129.217 156.028 129.117 156.027C129.05 156.026 128.984 156.01 128.925 155.979C128.856 155.943 128.798 155.889 128.757 155.823L126.129 151.875L125.229 152.991V155.643C125.231 155.698 125.217 155.753 125.19 155.801C125.162 155.848 125.121 155.887 125.073 155.913C124.967 155.973 124.847 156.005 124.725 156.003Z" fill="black"/>
<path d="M86.5079 110.998L83.7579 102.037H83.6879C83.7865 103.86 83.8359 105.076 83.8359 105.685V110.998H81.6719V99.5765H84.9719L87.6719 108.31H87.7189L90.5859 99.5765H93.8859V110.998H91.6279V105.592C91.6279 105.337 91.6319 105.043 91.6399 104.709C91.6479 104.376 91.6829 103.491 91.7449 102.053H91.6749L88.7269 110.998H86.5079ZM102.79 110.998L101.962 108.279H97.7999L96.9699 110.998H94.3609L98.3919 99.5295H101.353L105.4 110.998H102.79ZM101.384 106.248C100.619 103.782 100.188 102.388 100.091 102.068C99.9942 101.748 99.9252 101.493 99.8839 101.302C99.7119 101.969 99.2195 103.617 98.4069 106.247L101.384 106.248ZM116.01 110.998H112.932L107.963 102.357H107.893C107.992 103.883 108.041 104.972 108.041 105.623V110.998H105.877V99.5765H108.932L113.893 108.131H113.948C113.87 106.647 113.831 105.597 113.831 104.983V99.5775H116.01V110.998ZM117.925 110.998V99.5765H120.347V110.998H117.925ZM124.645 110.998H122.262V99.5765H128.809V101.56H124.645V104.505H128.52V106.482H124.645V110.998ZM136.662 110.998H130.083V99.5765H136.661V101.56H132.505V104.068H136.372V106.052H132.505V108.998H136.661L136.662 110.998ZM144.827 107.826C144.847 108.292 144.756 108.755 144.562 109.179C144.369 109.603 144.078 109.975 143.713 110.264C142.812 110.907 141.718 111.222 140.613 111.155C139.496 111.178 138.39 110.943 137.379 110.468V108.218C138.011 108.512 138.666 108.755 139.336 108.945C139.813 109.078 140.306 109.149 140.801 109.156C141.23 109.185 141.657 109.08 142.024 108.856C142.165 108.753 142.278 108.616 142.353 108.458C142.427 108.3 142.461 108.125 142.45 107.95C142.454 107.736 142.388 107.525 142.263 107.35C142.11 107.152 141.924 106.983 141.712 106.85C141.234 106.564 140.74 106.306 140.232 106.077C139.669 105.832 139.142 105.515 138.662 105.132C138.318 104.837 138.035 104.479 137.826 104.077C137.61 103.641 137.503 103.158 137.514 102.671C137.492 102.222 137.574 101.774 137.751 101.361C137.929 100.948 138.199 100.581 138.541 100.288C139.353 99.6689 140.361 99.3613 141.381 99.4215C141.954 99.4188 142.526 99.4898 143.081 99.6325C143.659 99.7869 144.224 99.9855 144.772 100.226L143.991 102.098C143.5 101.889 142.994 101.714 142.479 101.575C142.093 101.478 141.697 101.429 141.3 101.428C140.921 101.403 140.546 101.517 140.245 101.748C140.125 101.852 140.03 101.98 139.966 102.125C139.903 102.269 139.873 102.427 139.878 102.584C139.873 102.781 139.924 102.975 140.026 103.143C140.15 103.328 140.311 103.485 140.499 103.604C140.994 103.901 141.507 104.168 142.034 104.404C142.872 104.747 143.623 105.271 144.234 105.939C144.639 106.483 144.848 107.149 144.827 107.826ZM150.343 110.998H147.921V101.592H144.821V99.5765H153.446V101.592H150.346L150.343 110.998Z" fill="white"/>
<path d="M51.5689 111H49.1469V101.594H46.0469V99.5781H54.6719V101.594H51.5719L51.5689 111ZM64.8279 111H62.4139V106.07H57.8909V111H55.4689V99.5781H57.8909V104.055H62.4139V99.5781H64.8279V111ZM73.3279 111H66.7509V99.5781H73.3289V101.562H69.1729V104.07H73.0399V106.054H69.1729V109H73.3289L73.3279 111Z" fill="#E4C5CF"/>
<path d="M117 139C118.105 139 119 138.105 119 137C119 135.895 118.105 135 117 135C115.895 135 115 135.895 115 137C115 138.105 115.895 139 117 139Z" fill="#941A41"/>
<path d="M83 139C84.1046 139 85 138.105 85 137C85 135.895 84.1046 135 83 135C81.8954 135 81 135.895 81 137C81 138.105 81.8954 139 83 139Z" fill="#941A41"/>
</g>
<rect x="86" y="131" width="28" height="13" fill="white"/>
<path d="M93.22 142H88.564V141.208C88.564 140.608 88.636 140.104 88.78 139.696C88.932 139.288 89.132 138.952 89.38 138.688C89.636 138.416 89.92 138.2 90.232 138.04L91.012 137.644C91.38 137.452 91.672 137.252 91.888 137.044C92.112 136.836 92.224 136.536 92.224 136.144V135.94C92.224 135.492 92.096 135.168 91.84 134.968C91.592 134.768 91.224 134.668 90.736 134.668C90.464 134.668 90.176 134.704 89.872 134.776C89.568 134.84 89.232 134.952 88.864 135.112L88.528 134.236C88.928 134.052 89.312 133.92 89.68 133.84C90.056 133.76 90.416 133.72 90.76 133.72C91.648 133.72 92.284 133.928 92.668 134.344C93.052 134.752 93.244 135.284 93.244 135.94V136.144C93.244 136.576 93.16 136.936 92.992 137.224C92.832 137.512 92.616 137.756 92.344 137.956C92.08 138.148 91.796 138.32 91.492 138.472L90.712 138.88C90.336 139.08 90.056 139.356 89.872 139.708C89.696 140.06 89.6 140.508 89.584 141.052H93.22V142ZM100.362 137.02V138.808C100.362 139.896 100.118 140.72 99.63 141.28C99.142 141.84 98.462 142.12 97.59 142.12C96.718 142.12 96.038 141.84 95.55 141.28C95.07 140.72 94.83 139.896 94.83 138.808V137.02C94.83 135.94 95.074 135.12 95.562 134.56C96.05 134 96.726 133.72 97.59 133.72C98.462 133.72 99.142 134 99.63 134.56C100.118 135.12 100.362 135.94 100.362 137.02ZM99.306 137.02C99.306 136.188 99.154 135.588 98.85 135.22C98.554 134.852 98.134 134.668 97.59 134.668C97.054 134.668 96.634 134.852 96.33 135.22C96.034 135.588 95.886 136.188 95.886 137.02V138.808C95.886 139.632 96.034 140.236 96.33 140.62C96.634 140.996 97.054 141.184 97.59 141.184C98.134 141.184 98.554 140.996 98.85 140.62C99.154 140.236 99.306 139.632 99.306 138.808V137.02ZM106.497 142H101.841V141.208C101.841 140.608 101.913 140.104 102.057 139.696C102.209 139.288 102.409 138.952 102.657 138.688C102.913 138.416 103.197 138.2 103.509 138.04L104.289 137.644C104.657 137.452 104.949 137.252 105.165 137.044C105.389 136.836 105.501 136.536 105.501 136.144V135.94C105.501 135.492 105.373 135.168 105.117 134.968C104.869 134.768 104.501 134.668 104.013 134.668C103.741 134.668 103.453 134.704 103.149 134.776C102.845 134.84 102.509 134.952 102.141 135.112L101.805 134.236C102.205 134.052 102.589 133.92 102.957 133.84C103.333 133.76 103.693 133.72 104.037 133.72C104.925 133.72 105.561 133.928 105.945 134.344C106.329 134.752 106.521 135.284 106.521 135.94V136.144C106.521 136.576 106.437 136.936 106.269 137.224C106.109 137.512 105.893 137.756 105.621 137.956C105.357 138.148 105.073 138.32 104.769 138.472L103.989 138.88C103.613 139.08 103.333 139.356 103.149 139.708C102.973 140.06 102.877 140.508 102.861 141.052H106.497V142ZM107.423 134.968L109.367 133.84H110.315V142H109.295V134.944L107.879 135.76L107.423 134.968Z" fill="black"/>
</g>
<defs>
<clipPath id="clip0_1262_490">
<rect width="200" height="200" fill="white"/>
</clipPath>
</defs>
</svg>
