<svg width="588" height="517" viewBox="0 0 588 517" fill="none" xmlns="http://www.w3.org/2000/svg">
<path d="M454 47.2969H134V406.797V407.197L294 468.697L454 407.197V406.797V47.2969Z" fill="white"/>
<path d="M294.003 473.4L129.703 410.2V43H458.303V410.2L294.003 473.4ZM138.303 404.2L294.003 464.1L449.703 404.2V51.6H138.303V404.2Z" fill="#8D0200"/>
<path d="M155.5 370.297V390.597V390.997L293.9 444.197L432.4 390.997V390.597V370.297L293.9 423.597L155.5 370.297Z" fill="url(#paint0_radial_1260_503)"/>
<path d="M155.5 341.5V361.8V362.1L293.9 415.4L432.4 362.1V361.8V341.5L293.9 394.8L155.5 341.5Z" fill="url(#paint1_radial_1260_503)"/>
<path d="M155.5 312.703V333.003V333.303L293.9 386.603L432.4 333.303V333.003V312.703L293.9 366.003L155.5 312.703Z" fill="url(#paint2_radial_1260_503)"/>
<path d="M286.703 83.4969C286.703 83.4969 272.203 85.3969 272.003 85.8969C271.803 86.3969 282.503 96.4969 282.503 96.4969C282.503 96.4969 279.803 110.897 280.203 111.197C280.603 111.497 293.503 104.497 293.503 104.497C293.503 104.497 306.403 111.497 306.803 111.197C307.203 110.897 304.503 96.4969 304.503 96.4969C304.503 96.4969 315.103 86.3969 315.003 85.8969C314.803 85.3969 300.303 83.4969 300.303 83.4969C300.303 83.4969 294.003 70.2969 293.503 70.2969C293.003 70.2969 286.703 83.4969 286.703 83.4969Z" fill="url(#paint3_radial_1260_503)"/>
<path d="M270.503 165.398V173.598H259.003V207.998H248.703V173.598H237.203V165.398H270.503Z" fill="black"/>
<path d="M306 167.5C309.2 169.3 311.9 172 313.7 175.2C317.5 182.2 317.5 190.7 313.7 197.8C311.9 201 309.2 203.7 306 205.6C299.2 209.3 291 209.3 284.3 205.6C281.1 203.8 278.4 201.1 276.6 197.8C272.8 190.8 272.8 182.3 276.6 175.3C278.4 172.1 281.1 169.4 284.3 167.6C291 163.9 299.2 163.9 306 167.5ZM287.1 177.6C285.1 179.8 284.1 182.8 284.1 186.5C284.1 190.3 285.1 193.2 287.1 195.4C291.5 199.8 298.7 199.8 303.1 195.4C305.1 193.2 306.1 190.2 306.1 186.5C306.1 182.8 305.1 179.8 303.1 177.6C298.7 173.2 291.5 173.2 287.1 177.6Z" fill="black"/>
<path d="M332.597 192.998V207.998H322.297V165.398H338.997C344.097 165.398 347.897 166.698 350.597 169.198C353.197 171.698 354.597 175.098 354.597 179.298C354.597 181.798 353.997 184.198 352.797 186.398C351.597 188.498 349.697 190.198 347.497 191.298C344.897 192.598 341.897 193.198 338.997 193.098H332.597V192.998ZM344.097 179.298C344.097 175.598 341.997 173.698 337.897 173.698H332.697V184.798H337.897C341.997 184.798 344.097 182.998 344.097 179.298Z" fill="black"/>
<path d="M231.998 227.102V248.802H226.698V235.202L221.998 248.802H217.398L212.698 235.202V248.802H207.398V227.102H213.898L219.798 242.202L225.598 227.102H231.998Z" fill="black"/>
<path d="M248.298 232.397C249.598 233.097 250.698 234.197 251.498 235.497C252.998 238.397 252.998 241.997 251.498 244.897C250.798 246.197 249.598 247.297 248.298 247.997C246.898 248.697 245.298 249.097 243.698 249.097C242.098 249.097 240.498 248.797 239.098 247.997C237.798 247.297 236.598 246.197 235.898 244.897C234.398 241.997 234.398 238.397 235.898 235.497C236.598 234.197 237.798 233.097 239.098 232.397C240.498 231.697 242.098 231.297 243.698 231.297C245.298 231.297 246.898 231.597 248.298 232.397ZM241.198 236.997C240.498 237.897 240.098 238.997 240.198 240.197C240.098 241.297 240.498 242.497 241.198 243.397C241.898 244.097 242.798 244.497 243.798 244.497C244.798 244.497 245.698 244.097 246.398 243.397C247.098 242.497 247.498 241.397 247.398 240.197C247.498 239.097 247.098 237.897 246.398 236.997C245.698 236.297 244.798 235.897 243.798 235.897C242.798 235.897 241.798 236.297 241.198 236.997Z" fill="black"/>
<path d="M269.998 232.4C271.198 233.1 272.098 234.2 272.698 235.5C273.998 238.5 273.998 241.9 272.698 245C272.098 246.3 271.198 247.3 269.998 248.1C268.898 248.8 267.498 249.2 266.198 249.2C264.998 249.3 263.798 249 262.798 248.3C261.898 247.7 261.098 246.9 260.698 245.9V249H255.398V226H260.698V234.8C261.098 233.8 261.798 232.9 262.798 232.4C263.798 231.8 264.998 231.5 266.198 231.5C267.598 231.3 268.898 231.7 269.998 232.4ZM261.798 237.1C260.398 238.9 260.398 241.4 261.798 243.2C263.298 244.7 265.798 244.7 267.298 243.2C268.698 241.4 268.698 238.8 267.298 237C265.698 235.5 263.298 235.5 261.798 237.1Z" fill="black"/>
<path d="M276.798 224.7C278.098 223.6 279.998 223.6 281.398 224.7C281.998 225.2 282.298 225.9 282.298 226.7C282.298 227.4 281.998 228.2 281.398 228.7C280.098 229.8 278.198 229.8 276.798 228.7C276.198 228.2 275.898 227.5 275.898 226.7C275.898 225.9 276.198 225.2 276.798 224.7ZM281.698 231.5V248.8H276.398V231.5H281.698Z" fill="black"/>
<path d="M290.698 225.898V248.798H285.398V225.898H290.698Z" fill="black"/>
<path d="M310.602 241.102H298.602C298.602 242.102 298.902 243.102 299.602 243.902C300.202 244.502 301.002 244.802 301.902 244.802C302.602 244.802 303.302 244.602 303.902 244.202C304.402 243.802 304.802 243.302 304.902 242.702H310.502C310.302 243.902 309.802 245.002 309.002 246.002C308.202 247.002 307.202 247.702 306.102 248.302C304.902 248.902 303.502 249.202 302.202 249.202C300.602 249.202 299.102 248.902 297.702 248.102C296.402 247.402 295.302 246.302 294.602 245.002C293.102 242.002 293.102 238.502 294.602 235.502C295.302 234.202 296.402 233.102 297.702 232.402C300.502 231.002 303.902 231.002 306.702 232.402C308.002 233.102 309.002 234.102 309.702 235.402C310.402 236.702 310.802 238.302 310.802 239.802C310.702 240.202 310.702 240.702 310.602 241.102ZM304.502 236.302C303.902 235.702 303.002 235.402 302.202 235.402C301.302 235.402 300.402 235.702 299.802 236.302C299.102 237.002 298.702 237.902 298.702 238.902H305.502C305.502 238.002 305.102 237.002 304.502 236.302Z" fill="black"/>
<path d="M333.2 244.802H325L323.6 248.802H318L326 227.102H332.1L340.1 248.802H334.5L333.2 244.802ZM331.9 240.802L329.2 232.702L326.4 240.802H331.9Z" fill="black"/>
<path d="M356.897 232.397C358.097 233.197 358.997 234.197 359.597 235.497C360.897 238.497 360.897 241.897 359.597 244.997C358.997 246.297 358.097 247.297 356.897 248.097C355.797 248.797 354.397 249.197 353.097 249.197C351.897 249.297 350.697 248.997 349.697 248.297C348.797 247.697 347.997 246.897 347.597 245.897V257.297H342.297V231.697H347.597V234.797C347.997 233.797 348.697 232.897 349.697 232.397C350.697 231.797 351.897 231.497 353.097 231.497C354.397 231.297 355.697 231.697 356.897 232.397ZM348.597 237.097C347.197 238.897 347.197 241.397 348.597 243.197C350.097 244.697 352.597 244.697 354.097 243.197C355.497 241.397 355.497 238.797 354.097 236.997C352.597 235.497 350.097 235.497 348.597 237.097Z" fill="black"/>
<path d="M377.897 232.397C379.097 233.097 379.997 234.197 380.597 235.497C381.897 238.497 381.897 241.897 380.597 244.997C379.997 246.297 379.097 247.297 377.897 248.097C376.797 248.797 375.397 249.197 374.097 249.197C372.897 249.297 371.697 248.997 370.697 248.297C369.797 247.697 368.997 246.897 368.597 245.897V257.297H363.297V231.697H368.597V234.797C368.997 233.797 369.797 232.897 370.697 232.397C371.697 231.797 372.897 231.497 374.097 231.497C375.397 231.297 376.697 231.697 377.897 232.397ZM369.597 237.097C368.197 238.897 368.197 241.397 369.597 243.197C370.297 243.997 371.297 244.397 372.297 244.397C373.297 244.397 374.297 243.997 374.997 243.297C376.397 241.497 376.397 238.897 374.997 237.097C373.597 235.597 371.097 235.597 369.597 237.097Z" fill="black"/>
<path d="M224.103 277.902C223.203 279.602 221.803 280.902 220.103 281.802C218.203 282.802 216.103 283.202 214.003 283.202H205.703V261.302H214.003C216.103 261.202 218.203 261.702 220.103 262.702C221.803 263.602 223.103 264.902 224.003 266.502C225.903 270.102 225.903 274.302 224.103 277.902ZM218.403 276.802C220.703 274.202 220.703 270.202 218.403 267.602C217.103 266.402 215.303 265.902 213.603 266.002H211.103V278.502H213.603C215.303 278.602 217.003 278.002 218.403 276.802Z" fill="black"/>
<path d="M244.703 275.5H232.703C232.703 276.5 233.003 277.5 233.703 278.3C234.303 278.9 235.103 279.2 236.003 279.2C236.703 279.2 237.403 279 238.003 278.6C238.503 278.2 238.903 277.7 239.003 277.1H244.603C244.403 278.3 243.903 279.4 243.103 280.4C242.303 281.4 241.303 282.1 240.203 282.7C239.003 283.3 237.603 283.6 236.303 283.6C234.703 283.6 233.203 283.3 231.803 282.5C230.503 281.8 229.403 280.7 228.703 279.4C227.203 276.4 227.203 272.9 228.703 269.9C229.403 268.6 230.503 267.5 231.803 266.8C234.603 265.4 238.003 265.4 240.803 266.8C242.103 267.5 243.103 268.5 243.803 269.8C244.503 271.1 244.903 272.7 244.903 274.2C244.903 274.6 244.803 275.1 244.703 275.5ZM238.603 270.7C238.003 270.1 237.103 269.8 236.303 269.8C235.403 269.8 234.503 270.1 233.903 270.7C233.203 271.4 232.803 272.3 232.803 273.3H239.603C239.603 272.4 239.303 271.4 238.603 270.7Z" fill="black"/>
<path d="M255.603 277.998L259.403 265.898H265.003L258.903 283.198H252.303L246.203 265.898H251.803L255.603 277.998Z" fill="black"/>
<path d="M283.396 275.502H271.396C271.396 276.502 271.696 277.502 272.396 278.302C272.996 278.902 273.796 279.202 274.696 279.202C275.396 279.202 276.096 279.002 276.696 278.602C277.196 278.202 277.596 277.702 277.696 277.102H283.296C283.096 278.302 282.596 279.402 281.796 280.402C280.996 281.402 279.996 282.102 278.896 282.702C277.696 283.302 276.296 283.602 274.996 283.602C273.396 283.602 271.896 283.302 270.496 282.502C269.196 281.802 268.096 280.702 267.396 279.402C266.596 278.002 266.196 276.302 266.296 274.702C266.296 273.102 266.596 271.402 267.396 270.002C268.096 268.702 269.196 267.602 270.496 266.902C273.296 265.502 276.696 265.502 279.496 266.902C280.796 267.602 281.796 268.602 282.496 269.902C283.196 271.202 283.596 272.702 283.596 274.302C283.596 274.602 283.496 275.102 283.396 275.502ZM277.296 270.702C276.696 270.102 275.796 269.802 274.996 269.802C274.096 269.802 273.196 270.102 272.596 270.702C271.896 271.402 271.496 272.302 271.496 273.302H278.296C278.296 272.402 277.996 271.402 277.296 270.702Z" fill="black"/>
<path d="M291.597 260.297V283.197H286.297V260.297H291.597Z" fill="black"/>
<path d="M308.002 266.803C309.302 267.503 310.402 268.603 311.202 269.903C312.702 272.803 312.702 276.403 311.202 279.303C310.502 280.603 309.302 281.703 308.002 282.403C306.602 283.103 305.002 283.503 303.402 283.503C301.802 283.503 300.202 283.203 298.802 282.403C297.502 281.703 296.302 280.603 295.602 279.303C294.102 276.403 294.102 272.803 295.602 269.903C296.302 268.603 297.502 267.503 298.802 266.803C300.202 266.103 301.802 265.703 303.402 265.703C305.002 265.703 306.602 266.103 308.002 266.803ZM300.802 271.403C300.102 272.303 299.702 273.403 299.802 274.603C299.702 275.703 300.102 276.903 300.802 277.803C301.502 278.503 302.402 278.903 303.402 278.903C304.402 278.903 305.302 278.503 306.002 277.803C306.702 276.903 307.102 275.803 307.002 274.603C307.102 273.503 306.702 272.303 306.002 271.403C305.302 270.703 304.402 270.303 303.402 270.303C302.402 270.303 301.502 270.703 300.802 271.403Z" fill="black"/>
<path d="M329.703 266.803C330.903 267.503 331.803 268.603 332.403 269.903C333.703 272.903 333.703 276.303 332.403 279.403C331.803 280.703 330.903 281.703 329.703 282.503C328.603 283.203 327.203 283.603 325.903 283.603C324.703 283.703 323.503 283.403 322.503 282.703C321.603 282.103 320.803 281.303 320.403 280.303V291.703H315.203V266.103H320.503V269.203C320.903 268.203 321.603 267.303 322.603 266.803C323.603 266.203 324.803 265.903 326.003 265.903C327.203 265.703 328.503 266.103 329.703 266.803ZM321.503 271.503C320.103 273.303 320.103 275.803 321.503 277.603C323.003 279.103 325.503 279.103 327.003 277.603C328.403 275.803 328.403 273.203 327.003 271.403C325.403 269.903 323.003 269.903 321.503 271.503Z" fill="black"/>
<path d="M352.303 275.502H340.303C340.303 276.502 340.603 277.502 341.303 278.302C341.903 278.902 342.703 279.202 343.603 279.202C344.303 279.202 345.003 279.002 345.603 278.602C346.103 278.202 346.503 277.702 346.603 277.102H352.203C352.003 278.302 351.403 279.402 350.703 280.402C349.903 281.402 348.903 282.102 347.803 282.702C346.603 283.302 345.203 283.602 343.903 283.602C342.303 283.602 340.803 283.302 339.403 282.502C338.103 281.802 337.003 280.702 336.303 279.402C335.503 278.002 335.103 276.302 335.203 274.702C335.203 273.102 335.503 271.402 336.303 270.002C337.003 268.702 338.103 267.602 339.403 266.902C342.203 265.502 345.603 265.502 348.403 266.902C349.703 267.602 350.703 268.602 351.403 269.902C352.103 271.202 352.503 272.802 352.503 274.302C352.503 274.602 352.403 275.102 352.303 275.502ZM346.203 270.702C345.603 270.102 344.703 269.802 343.903 269.802C343.003 269.802 342.103 270.102 341.503 270.702C340.803 271.402 340.403 272.302 340.403 273.302H347.203C347.203 272.402 346.903 271.402 346.203 270.702Z" fill="black"/>
<path d="M363.103 266.697C364.103 266.097 365.303 265.797 366.503 265.797V271.497H365.003C363.803 271.397 362.703 271.697 361.703 272.397C360.903 273.197 360.403 274.297 360.503 275.397V283.297H355.203V266.097H360.503V269.397C361.203 268.197 362.103 267.297 363.103 266.697Z" fill="black"/>
<path d="M380.302 267.298C381.602 268.398 382.502 269.898 382.802 271.598H377.802C377.702 270.998 377.302 270.398 376.802 269.898C376.302 269.498 375.602 269.298 374.902 269.298C374.402 269.298 373.902 269.399 373.502 269.699C373.202 269.999 373.002 270.398 373.002 270.798C373.002 271.298 373.302 271.798 373.902 271.998C374.802 272.398 375.702 272.598 376.602 272.798C377.702 272.998 378.802 273.399 379.902 273.699C380.802 273.999 381.502 274.598 382.102 275.298C382.802 276.098 383.102 277.199 383.002 278.199C383.002 279.099 382.702 280.098 382.202 280.798C381.602 281.598 380.802 282.198 379.902 282.598C378.802 283.098 377.502 283.298 376.302 283.298C374.302 283.398 372.302 282.898 370.702 281.798C369.302 280.698 368.302 279.098 368.102 277.398H373.202C373.202 278.098 373.602 278.698 374.102 279.098C374.702 279.498 375.502 279.699 376.202 279.699C376.702 279.699 377.202 279.598 377.602 279.298C377.902 278.998 378.102 278.599 378.102 278.199C378.102 277.599 377.802 277.098 377.202 276.898C376.302 276.498 375.402 276.198 374.402 275.998C373.302 275.798 372.302 275.498 371.202 275.098C370.402 274.798 369.602 274.298 369.102 273.598C368.502 272.798 368.202 271.798 368.202 270.798C368.202 269.298 368.802 267.898 370.002 266.998C371.402 265.998 373.202 265.498 375.002 265.598C376.902 265.598 378.802 266.198 380.302 267.298Z" fill="black"/>
<path d="M273.303 314.513C273.303 313.213 272.703 312.513 271.603 312.513C271.003 312.513 270.503 312.713 270.203 313.213C269.903 313.813 269.703 314.613 269.703 315.313H265.703C265.703 313.613 266.303 311.913 267.603 310.613C268.803 309.513 270.403 309.013 272.003 309.013C273.503 308.913 275.003 309.413 276.203 310.413C277.203 311.413 277.703 312.713 277.603 314.013C277.503 315.813 276.903 317.513 275.703 318.913C274.403 320.513 272.903 321.813 271.103 322.913H277.803V326.213H265.703V323.113C270.803 319.613 273.303 316.713 273.303 314.513Z" fill="black"/>
<path d="M279.497 317.6C279.397 315.4 279.897 313.2 281.097 311.3C282.197 309.7 283.897 309 286.297 309C288.697 309 290.397 309.8 291.497 311.3C293.697 315.2 293.697 320 291.497 323.9C290.397 325.5 288.697 326.2 286.297 326.2C283.897 326.2 282.197 325.4 281.097 323.9C279.897 322.1 279.397 319.8 279.497 317.6ZM288.997 317.6C289.097 316.4 288.897 315.2 288.497 314.1C288.097 313.3 287.297 312.8 286.397 312.9C285.497 312.8 284.597 313.3 284.197 314.1C283.797 315.2 283.597 316.4 283.597 317.6C283.497 318.8 283.697 320 284.197 321.1C284.597 321.9 285.497 322.4 286.397 322.3C287.297 322.4 288.197 321.9 288.497 321.1C288.797 320 288.997 318.8 288.997 317.6Z" fill="black"/>
<path d="M302.498 314.513C302.498 313.213 301.898 312.513 300.798 312.513C300.198 312.513 299.698 312.713 299.398 313.213C299.098 313.813 298.898 314.613 298.898 315.313H294.898C294.898 313.613 295.498 311.913 296.798 310.613C297.998 309.513 299.598 309.013 301.198 309.013C302.698 308.913 304.198 309.413 305.398 310.413C306.398 311.413 306.898 312.713 306.798 314.013C306.698 315.813 306.098 317.513 304.898 318.913C303.598 320.513 302.098 321.813 300.398 322.913H307.098V326.213H294.898V323.113C299.898 319.613 302.498 316.713 302.498 314.513Z" fill="black"/>
<path d="M318.6 314.513C318.6 313.213 318 312.513 316.9 312.513C316.3 312.513 315.8 312.713 315.5 313.213C315.2 313.813 315 314.613 315 315.313H311C311 313.613 311.6 311.913 312.9 310.613C314.1 309.513 315.7 309.013 317.3 309.013C318.8 308.913 320.3 309.413 321.5 310.413C322.5 311.413 323 312.713 322.9 314.013C322.8 315.813 322.2 317.513 321 318.913C319.7 320.513 318.2 321.813 316.5 322.913H323.2V326.213H311V323.113C316 319.613 318.6 316.713 318.6 314.513Z" fill="black"/>
<path d="M236.902 127.097V128.997H235.802C235.002 129.097 234.202 128.797 233.602 128.297C233.002 127.697 232.702 126.797 232.802 125.997V122.297H231.602V120.397H232.802V118.297H235.002V120.397H236.902V122.197H235.002V125.997C235.002 126.297 235.102 126.597 235.202 126.897C235.402 127.097 235.802 127.197 236.102 127.097H236.902Z" fill="url(#paint4_radial_1260_503)"/>
<path d="M246.403 125.097H240.103C240.103 125.697 240.303 126.397 240.703 126.797C241.103 127.197 241.603 127.397 242.103 127.297C242.503 127.297 243.003 127.197 243.403 126.897C243.703 126.697 244.003 126.297 244.003 125.897H246.303C246.203 126.497 245.903 126.997 245.603 127.497C245.203 127.997 244.703 128.397 244.203 128.597C243.603 128.897 242.903 128.997 242.303 128.997C241.503 128.997 240.803 128.797 240.103 128.497C239.503 128.197 238.903 127.597 238.603 126.997C237.903 125.497 237.903 123.797 238.603 122.297C238.903 121.597 239.503 121.097 240.103 120.797C240.803 120.397 241.603 120.297 242.303 120.297C243.103 120.297 243.803 120.497 244.503 120.797C245.103 121.097 245.603 121.597 246.003 122.297C246.503 123.197 246.603 124.197 246.403 125.097ZM243.803 122.597C243.403 122.197 242.903 121.997 242.303 122.097C241.803 122.097 241.203 122.297 240.803 122.597C240.403 122.997 240.103 123.597 240.103 124.197H244.303C244.403 123.597 244.203 122.997 243.803 122.597Z" fill="url(#paint5_radial_1260_503)"/>
<path d="M254.697 121.297C255.497 121.897 255.897 122.797 256.097 123.697H253.797C253.697 123.297 253.497 122.897 253.197 122.597C252.797 122.297 252.397 122.197 251.997 122.197C251.397 122.197 250.897 122.397 250.497 122.797C249.697 123.897 249.697 125.397 250.497 126.597C250.897 126.997 251.397 127.297 251.997 127.197C252.397 127.197 252.897 127.097 253.197 126.797C253.497 126.497 253.797 126.097 253.797 125.697H256.097C255.997 126.697 255.497 127.497 254.697 128.097C253.897 128.697 252.897 128.997 251.897 128.997C251.097 128.997 250.397 128.797 249.697 128.497C249.097 128.197 248.497 127.597 248.197 126.997C247.497 125.497 247.497 123.797 248.197 122.297C248.497 121.597 249.097 121.097 249.697 120.797C250.397 120.397 251.197 120.297 251.897 120.297C252.897 120.297 253.897 120.597 254.697 121.297Z" fill="url(#paint6_radial_1260_503)"/>
<path d="M265.103 121.3C265.703 122.1 266.003 123 266.003 124V129H263.903V124.3C263.903 123.7 263.803 123.2 263.403 122.7C263.003 122.3 262.503 122.1 262.003 122.1C261.403 122.1 260.903 122.3 260.503 122.7C260.103 123.2 259.903 123.8 259.903 124.4V129H257.703V117.5H259.903V122.1C260.103 121.5 260.503 121.1 261.003 120.7C261.503 120.4 262.203 120.2 262.803 120.2C263.603 120.2 264.503 120.6 265.103 121.3Z" fill="url(#paint7_radial_1260_503)"/>
<path d="M271.297 120.797C271.797 120.497 272.397 120.297 272.997 120.297V122.597H272.397C270.797 122.597 269.997 123.297 269.997 124.797V128.897H267.797V120.297H269.997V121.897C270.397 121.497 270.797 121.097 271.297 120.797Z" fill="url(#paint8_radial_1260_503)"/>
<path d="M282.302 125.097H276.002C276.002 125.697 276.202 126.397 276.602 126.797C277.002 127.197 277.502 127.397 278.002 127.297C278.502 127.297 278.902 127.197 279.302 126.897C279.602 126.697 279.902 126.297 279.902 125.897H282.202C282.102 126.497 281.802 126.997 281.502 127.497C281.102 127.997 280.602 128.397 280.102 128.597C279.502 128.897 278.802 128.997 278.202 128.997C277.402 128.997 276.702 128.797 276.002 128.497C275.402 128.197 274.802 127.597 274.502 126.997C273.802 125.497 273.802 123.797 274.502 122.297C274.802 121.697 275.402 121.097 276.002 120.797C276.702 120.397 277.502 120.297 278.202 120.297C279.002 120.297 279.702 120.497 280.402 120.797C281.002 121.097 281.502 121.597 281.902 122.197C282.302 122.797 282.402 123.597 282.402 124.297C282.402 124.597 282.402 124.897 282.302 125.097ZM279.602 122.597C279.202 122.197 278.702 121.997 278.102 122.097C277.602 122.097 277.002 122.297 276.602 122.597C276.202 122.997 275.902 123.597 275.902 124.197H280.102C280.202 123.597 280.002 122.997 279.602 122.597Z" fill="url(#paint9_radial_1260_503)"/>
<path d="M287.702 126.798L289.902 120.398H292.202L289.002 128.998H286.302L283.102 120.398H285.402L287.702 126.798Z" fill="url(#paint10_radial_1260_503)"/>
<path d="M293.5 117.1C293.8 116.9 294.1 116.7 294.5 116.8C294.9 116.8 295.2 116.9 295.5 117.1C296 117.5 296 118.3 295.6 118.7L295.5 118.8C295.2 119 294.9 119.1 294.5 119.1C294.1 119.1 293.8 119 293.5 118.8C293 118.4 293 117.7 293.5 117.1ZM295.5 120.4V129H293.3V120.4H295.5Z" fill="url(#paint11_radial_1260_503)"/>
<path d="M305.497 125.097H299.197C299.197 125.697 299.397 126.397 299.797 126.797C300.197 127.197 300.697 127.397 301.197 127.297C301.697 127.297 302.097 127.197 302.497 126.897C302.797 126.697 303.097 126.297 303.097 125.897H305.397C305.297 126.497 304.997 126.997 304.697 127.497C304.297 127.997 303.797 128.397 303.297 128.597C302.697 128.897 301.997 128.997 301.397 128.997C300.597 128.997 299.897 128.797 299.197 128.497C298.597 128.197 297.997 127.597 297.697 126.997C296.997 125.497 296.997 123.797 297.697 122.297C297.997 121.597 298.597 121.097 299.197 120.797C299.897 120.397 300.697 120.297 301.397 120.297C302.197 120.297 302.897 120.497 303.597 120.797C304.197 121.097 304.797 121.597 305.097 122.197C305.497 122.797 305.597 123.597 305.597 124.297C305.597 124.597 305.597 124.897 305.497 125.097ZM302.797 122.597C302.397 122.197 301.897 121.997 301.297 122.097C300.797 122.097 300.197 122.297 299.797 122.597C299.397 122.997 299.097 123.597 299.097 124.197H303.297C303.497 123.597 303.297 122.997 302.797 122.597Z" fill="url(#paint12_radial_1260_503)"/>
<path d="M319.397 120.398L317.097 128.998H314.697L312.797 122.798L310.997 128.998H308.597L306.297 120.398H308.497L309.897 126.998L311.797 120.398H314.097L315.997 126.998L317.397 120.398H319.397Z" fill="url(#paint13_radial_1260_503)"/>
<path d="M328.497 125.097H322.197C322.197 125.697 322.397 126.397 322.797 126.797C323.197 127.197 323.697 127.397 324.197 127.297C324.697 127.297 325.097 127.197 325.497 126.897C325.797 126.697 326.097 126.297 326.097 125.897H328.397C328.297 126.497 327.997 126.997 327.697 127.497C327.297 127.997 326.797 128.397 326.297 128.597C325.697 128.897 324.997 128.997 324.397 128.997C323.597 128.997 322.897 128.797 322.197 128.497C321.597 128.197 320.997 127.597 320.697 126.997C319.997 125.497 319.997 123.797 320.697 122.297C320.997 121.597 321.597 121.097 322.197 120.797C322.897 120.397 323.697 120.297 324.397 120.297C325.197 120.297 325.897 120.497 326.597 120.797C327.197 121.097 327.697 121.597 328.097 122.297C328.497 123.197 328.697 124.197 328.497 125.097ZM325.797 122.597C325.397 122.197 324.897 121.997 324.297 122.097C323.797 122.097 323.197 122.297 322.797 122.597C322.397 122.997 322.097 123.597 322.097 124.197H326.297C326.397 123.597 326.197 122.997 325.797 122.597Z" fill="url(#paint14_radial_1260_503)"/>
<path d="M333.602 120.797C334.102 120.497 334.702 120.297 335.302 120.297V122.597H334.702C333.102 122.597 332.302 123.297 332.302 124.797V128.897H330.102V120.297H332.302V121.897C332.602 121.497 333.002 121.097 333.602 120.797Z" fill="url(#paint15_radial_1260_503)"/>
<path d="M338.3 126.703V129.003H336V126.703H338.3Z" fill="url(#paint16_radial_1260_503)"/>
<path d="M346.402 121.297C347.102 121.897 347.602 122.797 347.802 123.697H345.602C345.502 123.297 345.302 122.897 345.002 122.597C344.602 122.297 344.202 122.197 343.702 122.197C343.102 122.197 342.602 122.397 342.302 122.797C341.502 123.897 341.502 125.397 342.302 126.597C342.702 126.997 343.202 127.297 343.702 127.197C344.202 127.197 344.602 127.097 345.002 126.797C345.302 126.497 345.602 126.097 345.602 125.697H347.902C347.802 126.697 347.302 127.497 346.502 128.097C345.702 128.697 344.702 128.997 343.702 128.997C342.902 128.997 342.202 128.797 341.502 128.497C340.902 128.197 340.302 127.597 340.002 126.997C339.302 125.497 339.302 123.797 340.002 122.297C340.302 121.697 340.902 121.097 341.502 120.797C342.202 120.397 343.002 120.297 343.702 120.297C344.702 120.297 345.602 120.597 346.402 121.297Z" fill="url(#paint17_radial_1260_503)"/>
<path d="M355.598 120.798C356.298 121.098 356.798 121.698 357.198 122.298C357.998 123.798 357.998 125.498 357.198 126.998C356.798 127.598 356.298 128.198 355.598 128.498C354.198 129.198 352.498 129.198 351.098 128.498C350.398 128.198 349.898 127.598 349.498 126.998C348.698 125.498 348.698 123.798 349.498 122.298C349.898 121.598 350.398 121.098 351.098 120.798C352.498 120.098 354.198 120.098 355.598 120.798ZM351.798 122.898C351.298 123.398 351.098 124.098 351.198 124.798C351.198 125.498 351.398 126.198 351.798 126.698C352.598 127.598 353.998 127.598 354.898 126.698C355.398 126.198 355.598 125.498 355.498 124.798C355.498 124.098 355.298 123.398 354.898 122.898C353.998 121.998 352.598 121.998 351.798 122.898Z" fill="url(#paint18_radial_1260_503)"/>
<defs>
<radialGradient id="paint0_radial_1260_503" cx="0" cy="0" r="1" gradientUnits="userSpaceOnUse" gradientTransform="translate(293.931 407.275) scale(101.345 101.345)">
<stop stop-color="#C60600"/>
<stop offset="1" stop-color="#930600"/>
</radialGradient>
<radialGradient id="paint1_radial_1260_503" cx="0" cy="0" r="1" gradientUnits="userSpaceOnUse" gradientTransform="translate(293.931 378.465) scale(101.345 101.345)">
<stop stop-color="#C60600"/>
<stop offset="1" stop-color="#930600"/>
</radialGradient>
<radialGradient id="paint2_radial_1260_503" cx="0" cy="0" r="1" gradientUnits="userSpaceOnUse" gradientTransform="translate(293.931 349.655) scale(101.345 101.345)">
<stop stop-color="#C60600"/>
<stop offset="1" stop-color="#930600"/>
</radialGradient>
<radialGradient id="paint3_radial_1260_503" cx="0" cy="0" r="1" gradientUnits="userSpaceOnUse" gradientTransform="translate(294.331 90.334) scale(20.8623 20.8622)">
<stop stop-color="#C60600"/>
<stop offset="1" stop-color="#930600"/>
</radialGradient>
<radialGradient id="paint4_radial_1260_503" cx="0" cy="0" r="1" gradientUnits="userSpaceOnUse" gradientTransform="translate(234.229 123.648) scale(4.21869 4.2187)">
<stop stop-color="#C60600"/>
<stop offset="1" stop-color="#930600"/>
</radialGradient>
<radialGradient id="paint5_radial_1260_503" cx="0" cy="0" r="1" gradientUnits="userSpaceOnUse" gradientTransform="translate(242.268 124.715) scale(4.32609 4.3261)">
<stop stop-color="#C60600"/>
<stop offset="1" stop-color="#930600"/>
</radialGradient>
<radialGradient id="paint6_radial_1260_503" cx="0" cy="0" r="1" gradientUnits="userSpaceOnUse" gradientTransform="translate(251.843 124.721) scale(4.3123 4.3123)">
<stop stop-color="#C60600"/>
<stop offset="1" stop-color="#930600"/>
</radialGradient>
<radialGradient id="paint7_radial_1260_503" cx="0" cy="0" r="1" gradientUnits="userSpaceOnUse" gradientTransform="translate(261.792 123.282) scale(5.01079 5.0108)">
<stop stop-color="#C60600"/>
<stop offset="1" stop-color="#930600"/>
</radialGradient>
<radialGradient id="paint8_radial_1260_503" cx="0" cy="0" r="1" gradientUnits="userSpaceOnUse" gradientTransform="translate(270.499 124.655) scale(3.58661 3.5866)">
<stop stop-color="#C60600"/>
<stop offset="1" stop-color="#930600"/>
</radialGradient>
<radialGradient id="paint9_radial_1260_503" cx="0" cy="0" r="1" gradientUnits="userSpaceOnUse" gradientTransform="translate(278.133 124.715) scale(4.3263 4.3263)">
<stop stop-color="#C60600"/>
<stop offset="1" stop-color="#930600"/>
</radialGradient>
<radialGradient id="paint10_radial_1260_503" cx="0" cy="0" r="1" gradientUnits="userSpaceOnUse" gradientTransform="translate(287.65 124.717) scale(4.3943 4.3943)">
<stop stop-color="#C60600"/>
<stop offset="1" stop-color="#930600"/>
</radialGradient>
<radialGradient id="paint11_radial_1260_503" cx="0" cy="0" r="1" gradientUnits="userSpaceOnUse" gradientTransform="translate(294.456 122.907) scale(4.43951 4.4395)">
<stop stop-color="#C60600"/>
<stop offset="1" stop-color="#930600"/>
</radialGradient>
<radialGradient id="paint12_radial_1260_503" cx="0" cy="0" r="1" gradientUnits="userSpaceOnUse" gradientTransform="translate(301.333 124.715) scale(4.3263 4.3263)">
<stop stop-color="#C60600"/>
<stop offset="1" stop-color="#930600"/>
</radialGradient>
<radialGradient id="paint13_radial_1260_503" cx="0" cy="0" r="1" gradientUnits="userSpaceOnUse" gradientTransform="translate(312.837 124.708) scale(5.5557 5.5557)">
<stop stop-color="#C60600"/>
<stop offset="1" stop-color="#930600"/>
</radialGradient>
<radialGradient id="paint14_radial_1260_503" cx="0" cy="0" r="1" gradientUnits="userSpaceOnUse" gradientTransform="translate(324.312 124.715) scale(4.32819 4.3282)">
<stop stop-color="#C60600"/>
<stop offset="1" stop-color="#930600"/>
</radialGradient>
<radialGradient id="paint15_radial_1260_503" cx="0" cy="0" r="1" gradientUnits="userSpaceOnUse" gradientTransform="translate(332.723 124.655) scale(3.58659 3.5866)">
<stop stop-color="#C60600"/>
<stop offset="1" stop-color="#930600"/>
</radialGradient>
<radialGradient id="paint16_radial_1260_503" cx="0" cy="0" r="1" gradientUnits="userSpaceOnUse" gradientTransform="translate(337.168 127.878) scale(1.16129 1.1613)">
<stop stop-color="#C60600"/>
<stop offset="1" stop-color="#930600"/>
</radialGradient>
<radialGradient id="paint17_radial_1260_503" cx="0" cy="0" r="1" gradientUnits="userSpaceOnUse" gradientTransform="translate(343.595 124.721) scale(4.3123 4.3123)">
<stop stop-color="#C60600"/>
<stop offset="1" stop-color="#930600"/>
</radialGradient>
<radialGradient id="paint18_radial_1260_503" cx="0" cy="0" r="1" gradientUnits="userSpaceOnUse" gradientTransform="translate(353.319 124.721) scale(4.39741 4.3974)">
<stop stop-color="#C60600"/>
<stop offset="1" stop-color="#930600"/>
</radialGradient>
</defs>
</svg>
