<svg width="180" height="180" viewBox="0 0 180 180" fill="none" xmlns="http://www.w3.org/2000/svg">
<g clip-path="url(#clip0_1625_555)">
<path d="M171.038 147.688L133.919 110.568L148.933 105.104C150.213 104.638 150.973 103.32 150.736 101.979L146.715 79.1704L158.295 59.1127C158.976 57.9333 158.712 56.4349 157.668 55.5595L139.926 40.6726L135.904 17.864C135.668 16.5228 134.503 15.5451 133.14 15.5451H109.98L92.2387 0.656805C91.1949 -0.218935 89.6737 -0.218935 88.6299 0.656805L70.8883 15.544H47.7278C46.3655 15.544 45.2004 16.5217 44.9638 17.8629L40.942 40.6712L23.1997 55.5585C22.1562 56.4338 21.8922 57.9322 22.5732 59.1117L34.1536 79.1693L30.1318 101.978C29.8948 103.319 30.6556 104.636 31.9356 105.103L46.3142 110.336L8.96248 147.688C8.1901 148.461 7.93592 149.612 8.31209 150.638C8.68791 151.665 9.62518 152.379 10.7143 152.47L33.7511 154.39L35.6713 177.426C35.762 178.515 36.4764 179.453 37.5026 179.829C37.8176 179.944 38.1439 180 38.4677 180C39.1993 180 39.9171 179.714 40.4529 179.178L90.0006 129.63L139.548 179.178C140.084 179.714 140.802 180 141.534 180C141.857 180 142.184 179.944 142.499 179.829C143.525 179.453 144.239 178.515 144.33 177.426L146.25 154.39L169.287 152.47C170.376 152.379 171.313 151.665 171.689 150.638C172.065 149.612 171.811 148.461 171.038 147.688ZM40.7627 170.93L39.1479 151.557C39.034 150.191 37.9505 149.107 36.584 148.993L17.2112 147.378L52.1346 112.455L53.6994 113.024L65.2795 133.082C65.7928 133.971 66.7315 134.486 67.7109 134.486C68.0308 134.486 68.355 134.431 68.6703 134.316L82.3556 129.335L40.7627 170.93ZM92.7228 121.255L91.3935 120.772C90.7737 120.546 90.0938 120.546 89.474 120.772L87.5053 121.488L68.9635 128.236L58.05 109.334C57.7199 108.762 57.1996 108.325 56.5794 108.099L52.3747 106.569L36.069 100.634L39.8595 79.1395C39.9745 78.4891 39.8563 77.8197 39.5266 77.2481L28.6127 58.3453L45.3337 44.3152C45.8392 43.8912 46.1792 43.3027 46.2931 42.653L50.0833 21.1578H71.91C72.5702 21.1578 73.209 20.9254 73.7142 20.5011L90.4345 6.47093L107.155 20.5011C107.66 20.9254 108.299 21.1578 108.959 21.1578H130.786L134.576 42.653C134.691 43.3027 135.03 43.8915 135.536 44.3152L152.256 58.3453L141.343 77.2481C141.013 77.8193 140.895 78.4891 141.009 79.1391L144.8 100.634L127.859 106.8L124.289 108.099C123.669 108.325 123.148 108.762 122.819 109.334L111.905 128.236L92.7277 121.257C92.726 121.256 92.7242 121.256 92.7228 121.255ZM143.417 148.993C142.051 149.107 140.967 150.191 140.853 151.557L139.239 170.93L97.149 128.839L112.198 134.317C112.513 134.432 112.837 134.486 113.157 134.486C114.137 134.486 115.075 133.971 115.589 133.082L127.168 113.025L128.098 112.687L162.79 147.379L143.417 148.993Z" fill="url(#paint0_linear_1625_555)"/>
<path d="M90.0013 24.0859C65.3424 24.0859 45.2812 44.1471 45.2812 68.806C45.2812 93.4649 65.3428 113.526 90.0013 113.526C114.66 113.526 134.721 93.4646 134.721 68.806C134.721 44.1475 114.66 24.0859 90.0013 24.0859ZM90.0013 107.912C68.4379 107.912 50.8946 90.369 50.8946 68.8057C50.8946 47.2423 68.4379 29.6993 90.0013 29.6993C111.564 29.6993 129.108 47.2426 129.108 68.806C129.108 90.3694 111.564 107.912 90.0013 107.912Z" fill="url(#paint1_linear_1625_555)"/>
<path d="M122.305 59.869C121.929 58.7124 120.851 57.9294 119.635 57.9294H98.9205L92.5196 38.2286C92.1438 37.072 91.0662 36.2891 89.8502 36.2891C88.6345 36.2891 87.5566 37.072 87.1808 38.2286L80.7795 57.9294H60.0648C58.8491 57.9294 57.7712 58.7124 57.3954 59.869C57.0196 61.0253 57.4313 62.2923 58.4153 63.0071L75.1739 75.1827L68.7726 94.8839C68.3968 96.0401 68.8085 97.3072 69.7925 98.0219C70.2844 98.3794 70.863 98.558 71.4421 98.558C72.0211 98.558 72.5997 98.3791 73.0916 98.0219L89.8502 85.8466L106.608 98.0219C107.592 98.7366 108.924 98.7366 109.907 98.0219C110.891 97.3075 111.302 96.0405 110.927 94.8839L104.526 75.1827L121.285 63.0071C122.269 62.2923 122.68 61.0253 122.305 59.869ZM99.5772 71.8404C98.5935 72.5548 98.1819 73.8218 98.5573 74.9784L102.919 88.4032L91.4994 80.1067C90.5157 79.3919 89.1836 79.3919 88.2003 80.1067L76.7802 88.4035L81.142 74.9784C81.5178 73.8221 81.1061 72.5551 80.1221 71.8407L68.7027 63.5435H82.8189C84.0346 63.5435 85.1125 62.7606 85.4884 61.604L89.8502 48.1792L94.2117 61.604C94.5875 62.7606 95.665 63.5435 96.8811 63.5435H110.997L99.5772 71.8404Z" fill="url(#paint2_linear_1625_555)"/>
</g>
<defs>
<linearGradient id="paint0_linear_1625_555" x1="8.1407" y1="89.9989" x2="171.86" y2="89.9989" gradientUnits="userSpaceOnUse">
<stop stop-color="#29D8FC"/>
<stop offset="0.392703" stop-color="#29D8FC"/>
<stop offset="1" stop-color="#114C73"/>
</linearGradient>
<linearGradient id="paint1_linear_1625_555" x1="45.2813" y1="68.8053" x2="134.721" y2="68.8053" gradientUnits="userSpaceOnUse">
<stop stop-color="#29D8FC"/>
<stop offset="0.392703" stop-color="#29D8FC"/>
<stop offset="1" stop-color="#114C73"/>
</linearGradient>
<linearGradient id="paint2_linear_1625_555" x1="57.2578" y1="67.4232" x2="122.442" y2="67.4232" gradientUnits="userSpaceOnUse">
<stop stop-color="#29D8FC"/>
<stop offset="0.392703" stop-color="#29D8FC"/>
<stop offset="1" stop-color="#114C73"/>
</linearGradient>
<clipPath id="clip0_1625_555">
<rect width="180" height="180" fill="white"/>
</clipPath>
</defs>
</svg>
